EBGaramondVF-ytransparentMax.ufo
<glyph name="exclam" format="1">
  <advance width="250"/>
  <unicode hex="0021"/>
  <outline>
    <contour>
      <point x="123" y="205" type="curve" smooth="yes"/>
      <point x="133" y="205"/>
      <point x="139" y="222"/>
      <point x="141" y="244" type="curve" smooth="yes"/>
      <point x="153" y="357"/>
      <point x="171" y="808"/>
      <point x="171" y="871" type="curve" smooth="yes"/>
      <point x="171" y="900"/>
      <point x="153" y="926"/>
      <point x="126" y="926" type="curve" smooth="yes"/>
      <point x="99" y="926"/>
      <point x="79" y="900"/>
      <point x="79" y="871" type="curve" smooth="yes"/>
      <point x="79" y="808"/>
      <point x="93" y="358"/>
      <point x="105" y="244" type="curve" smooth="yes"/>
      <point x="108" y="215"/>
      <point x="113" y="205"/>
    </contour>
    <contour>
      <point x="125" y="-14" type="curve" smooth="yes"/>
      <point x="158" y="-14"/>
      <point x="185" y="13"/>
      <point x="185" y="46" type="curve" smooth="yes"/>
      <point x="185" y="79"/>
      <point x="158" y="106"/>
      <point x="125" y="106" type="curve" smooth="yes"/>
      <point x="92" y="106"/>
      <point x="65" y="79"/>
      <point x="65" y="46" type="curve" smooth="yes"/>
      <point x="65" y="13"/>
      <point x="92" y="-14"/>
    </contour>
  </outline>
</glyph>
<glyph name="ampersand" format="1">
  <advance width="756"/>
  <unicode hex="0026"/>
  <outline>
    <contour>
      <point x="305" y="-15"/>
      <point x="352" y="68"/>
      <point x="415" y="163" type="curve"/>
      <point x="421" y="171" type="line"/>
      <point x="432" y="146" type="line" smooth="yes"/>
      <point x="481" y="34"/>
      <point x="511" y="-15"/>
      <point x="586" y="-15" type="curve" smooth="yes"/>
      <point x="641" y="-15"/>
      <point x="715" y="31"/>
      <point x="715" y="55" type="curve" smooth="yes"/>
      <point x="715" y="67"/>
      <point x="712" y="71"/>
      <point x="703" y="71" type="curve" smooth="yes"/>
      <point x="697" y="71"/>
      <point x="691" y="68"/>
      <point x="686" y="64" type="curve" smooth="yes"/>
      <point x="662" y="45"/>
      <point x="636" y="39"/>
      <point x="608" y="39" type="curve" smooth="yes"/>
      <point x="567" y="39"/>
      <point x="538" y="69"/>
      <point x="490" y="172" type="curve" smooth="yes"/>
      <point x="459" y="237" type="line"/>
      <point x="459" y="237"/>
      <point x="623" y="486"/>
      <point x="636" y="502" type="curve" smooth="yes"/>
      <point x="652" y="521"/>
      <point x="678" y="541"/>
      <point x="711" y="550" type="curve" smooth="yes"/>
      <point x="720" y="552"/>
      <point x="736" y="561"/>
      <point x="736" y="569" type="curve" smooth="yes"/>
      <point x="736" y="573"/>
      <point x="727" y="578"/>
      <point x="724" y="578" type="curve" smooth="yes"/>
      <point x="700" y="578"/>
      <point x="658" y="557"/>
      <point x="628" y="557" type="curve" smooth="yes"/>
      <point x="613" y="557"/>
      <point x="563" y="568"/>
      <point x="557" y="568" type="curve" smooth="yes"/>
      <point x="553" y="568"/>
      <point x="535" y="567"/>
      <point x="535" y="557" type="curve" smooth="yes"/>
      <point x="535" y="554"/>
      <point x="544" y="547"/>
      <point x="554" y="545" type="curve" smooth="yes"/>
      <point x="567" y="542"/>
      <point x="575" y="528"/>
      <point x="575" y="507" type="curve" smooth="yes"/>
      <point x="575" y="473"/>
      <point x="515" y="355"/>
      <point x="466" y="284" type="curve" smooth="yes"/>
      <point x="448" y="258" type="line"/>
      <point x="435" y="285" type="line" smooth="yes"/>
      <point x="396" y="366"/>
      <point x="358" y="411"/>
      <point x="305" y="486" type="curve" smooth="yes"/>
      <point x="293" y="503" type="line"/>
      <point x="307" y="510" type="line" smooth="yes"/>
      <point x="373" y="543"/>
      <point x="412" y="597"/>
      <point x="411" y="668" type="curve" smooth="yes"/>
      <point x="411" y="740"/>
      <point x="370" y="837"/>
      <point x="284" y="837" type="curve" smooth="yes"/>
      <point x="215" y="837"/>
      <point x="145" y="775"/>
      <point x="145" y="677" type="curve" smooth="yes"/>
      <point x="145" y="596"/>
      <point x="191" y="546"/>
      <point x="210" y="515" type="curve"/>
      <point x="227" y="490" type="line"/>
      <point x="207" y="478" type="line" smooth="yes"/>
      <point x="110" y="420"/>
      <point x="38" y="329"/>
      <point x="38" y="182" type="curve" smooth="yes"/>
      <point x="38" y="68"/>
      <point x="109" y="-15"/>
      <point x="212" y="-15" type="curve" smooth="yes"/>
    </contour>
    <contour>
      <point x="165" y="53"/>
      <point x="115" y="125"/>
      <point x="115" y="215" type="curve" smooth="yes"/>
      <point x="115" y="301"/>
      <point x="125" y="406"/>
      <point x="218" y="459" type="curve" smooth="yes"/>
      <point x="239" y="471" type="line"/>
      <point x="252" y="450" type="line" smooth="yes"/>
      <point x="309" y="358"/>
      <point x="362" y="286"/>
      <point x="395" y="212" type="curve" smooth="yes"/>
      <point x="406" y="187" type="line"/>
      <point x="397" y="174" type="line" smooth="yes"/>
      <point x="345" y="99"/>
      <point x="304" y="53"/>
      <point x="238" y="53" type="curve" smooth="yes"/>
    </contour>
    <contour>
      <point x="263" y="552" type="line" smooth="yes"/>
      <point x="210" y="632"/>
      <point x="203" y="662"/>
      <point x="203" y="719" type="curve" smooth="yes"/>
      <point x="203" y="770"/>
      <point x="239" y="811"/>
      <point x="279" y="811" type="curve" smooth="yes"/>
      <point x="325" y="811"/>
      <point x="347" y="747"/>
      <point x="347" y="680" type="curve" smooth="yes"/>
      <point x="347" y="622"/>
      <point x="334" y="553"/>
      <point x="296" y="530" type="curve" smooth="yes"/>
      <point x="283" y="522" type="line"/>
    </contour>
  </outline>
</glyph>
<glyph name="quotesingle" format="1">
  <advance width="200"/>
  <unicode hex="0027"/>
  <outline>
    <contour>
      <point x="77" y="756"/>
      <point x="86" y="769"/>
      <point x="91" y="781" type="curve" smooth="yes"/>
      <point x="106" y="817"/>
      <point x="138" y="904"/>
      <point x="138" y="956" type="curve" smooth="yes"/>
      <point x="138" y="973"/>
      <point x="134" y="988"/>
      <point x="124" y="988" type="curve" smooth="yes"/>
      <point x="108" y="988"/>
      <point x="97" y="980"/>
      <point x="81" y="967" type="curve"/>
      <point x="73" y="960"/>
      <point x="62" y="946"/>
      <point x="62" y="932" type="curve" smooth="yes"/>
      <point x="62" y="931"/>
      <point x="66" y="872"/>
      <point x="66" y="836" type="curve" smooth="yes"/>
      <point x="66" y="818"/>
      <point x="66" y="800"/>
      <point x="65" y="779" type="curve"/>
      <point x="65" y="770"/>
      <point x="67" y="756"/>
      <point x="72" y="756" type="curve" smooth="yes"/>
    </contour>
  </outline>
</glyph>
<glyph name="asterisk" format="1">
  <advance width="340"/>
  <unicode hex="002A"/>
  <outline>
    <contour>
      <point x="196" y="690"/>
      <point x="201" y="701"/>
      <point x="201" y="712" type="curve"/>
      <point x="200" y="747"/>
      <point x="198" y="777"/>
      <point x="195" y="805" type="curve"/>
      <point x="221" y="794"/>
      <point x="249" y="782"/>
      <point x="282" y="770" type="curve" smooth="yes"/>
      <point x="290" y="767"/>
      <point x="307" y="769"/>
      <point x="307" y="783" type="curve" smooth="yes"/>
      <point x="307" y="790"/>
      <point x="302" y="798"/>
      <point x="295" y="801" type="curve"/>
      <point x="264" y="819"/>
      <point x="239" y="831"/>
      <point x="213" y="843" type="curve"/>
      <point x="286" y="901" type="line"/>
      <point x="291" y="906"/>
      <point x="295" y="912"/>
      <point x="295" y="918" type="curve" smooth="yes"/>
      <point x="295" y="928"/>
      <point x="285" y="932"/>
      <point x="277" y="932" type="curve" smooth="yes"/>
      <point x="273" y="932"/>
      <point x="269" y="931"/>
      <point x="266" y="928" type="curve"/>
      <point x="236" y="910"/>
      <point x="210" y="894"/>
      <point x="187" y="878" type="curve"/>
      <point x="174" y="970" type="line" smooth="yes"/>
      <point x="173" y="979"/>
      <point x="166" y="988"/>
      <point x="157" y="988" type="curve" smooth="yes"/>
      <point x="145" y="988"/>
      <point x="140" y="977"/>
      <point x="140" y="966" type="curve" smooth="yes"/>
      <point x="140" y="931"/>
      <point x="143" y="901"/>
      <point x="146" y="873" type="curve"/>
      <point x="120" y="884"/>
      <point x="91" y="894"/>
      <point x="59" y="908" type="curve"/>
      <point x="51" y="911"/>
      <point x="34" y="909"/>
      <point x="34" y="895" type="curve" smooth="yes"/>
      <point x="34" y="888"/>
      <point x="39" y="880"/>
      <point x="46" y="877" type="curve"/>
      <point x="77" y="859"/>
      <point x="102" y="847"/>
      <point x="128" y="835" type="curve"/>
      <point x="55" y="777" type="line"/>
      <point x="50" y="772"/>
      <point x="46" y="766"/>
      <point x="46" y="760" type="curve" smooth="yes"/>
      <point x="46" y="750"/>
      <point x="56" y="746"/>
      <point x="64" y="746" type="curve" smooth="yes"/>
      <point x="68" y="746"/>
      <point x="72" y="747"/>
      <point x="75" y="750" type="curve"/>
      <point x="105" y="768"/>
      <point x="131" y="784"/>
      <point x="154" y="800" type="curve"/>
      <point x="167" y="708" type="line" smooth="yes"/>
      <point x="168" y="699"/>
      <point x="175" y="690"/>
      <point x="184" y="690" type="curve" smooth="yes"/>
    </contour>
  </outline>
</glyph>
<glyph name="plus" format="1">
  <advance width="590"/>
  <unicode hex="002B"/>
  <outline>
    <contour>
      <point x="286" y="152"/>
      <point x="325" y="155"/>
      <point x="325" y="176" type="curve" smooth="yes"/>
      <point x="325" y="375" type="line" smooth="yes"/>
      <point x="325" y="378"/>
      <point x="326" y="379"/>
      <point x="329" y="379" type="curve" smooth="yes"/>
      <point x="514" y="379" type="line" smooth="yes"/>
      <point x="533" y="379"/>
      <point x="545" y="402"/>
      <point x="545" y="419" type="curve" smooth="yes"/>
      <point x="545" y="425"/>
      <point x="539" y="429"/>
      <point x="532" y="429" type="curve" smooth="yes"/>
      <point x="327" y="429" type="line" smooth="yes"/>
      <point x="325" y="429"/>
      <point x="325" y="430"/>
      <point x="325" y="435" type="curve" smooth="yes"/>
      <point x="325" y="629" type="line" smooth="yes"/>
      <point x="325" y="636"/>
      <point x="318" y="642"/>
      <point x="311" y="642" type="curve" smooth="yes"/>
      <point x="305" y="642"/>
      <point x="265" y="633"/>
      <point x="265" y="611" type="curve" smooth="yes"/>
      <point x="265" y="437" type="line" smooth="yes"/>
      <point x="265" y="431"/>
      <point x="264" y="429"/>
      <point x="258" y="429" type="curve" smooth="yes"/>
      <point x="69" y="429" type="line" smooth="yes"/>
      <point x="51" y="429"/>
      <point x="45" y="400"/>
      <point x="45" y="391" type="curve" smooth="yes"/>
      <point x="45" y="385"/>
      <point x="52" y="379"/>
      <point x="59" y="379" type="curve" smooth="yes"/>
      <point x="261" y="379" type="line" smooth="yes"/>
      <point x="264" y="379"/>
      <point x="265" y="377"/>
      <point x="265" y="374" type="curve" smooth="yes"/>
      <point x="265" y="166" type="line" smooth="yes"/>
      <point x="265" y="159"/>
      <point x="271" y="152"/>
      <point x="277" y="152" type="curve" smooth="yes"/>
    </contour>
  </outline>
</glyph>
<glyph name="zero" format="1">
  <advance width="480"/>
  <unicode hex="0030"/>
  <outline>
    <contour>
      <point x="235" y="-14" type="curve" smooth="yes"/>
      <point x="389" y="-14"/>
      <point x="445" y="216"/>
      <point x="445" y="444" type="curve" smooth="yes"/>
      <point x="445" y="665"/>
      <point x="387" y="879"/>
      <point x="245" y="879" type="curve" smooth="yes"/>
      <point x="91" y="879"/>
      <point x="35" y="655"/>
      <point x="35" y="424" type="curve" smooth="yes"/>
      <point x="35" y="199"/>
      <point x="93" y="-14"/>
    </contour>
    <contour>
      <point x="252" y="12" type="curve" smooth="yes"/>
      <point x="156" y="12"/>
      <point x="118" y="216"/>
      <point x="118" y="449" type="curve" smooth="yes"/>
      <point x="118" y="683"/>
      <point x="140" y="850"/>
      <point x="226" y="850" type="curve" smooth="yes"/>
      <point x="322" y="850"/>
      <point x="363" y="652"/>
      <point x="363" y="419" type="curve" smooth="yes"/>
      <point x="363" y="185"/>
      <point x="338" y="12"/>
    </contour>
  </outline>
</glyph>
<glyph name="three" format="1">
  <advance width="480"/>
  <unicode hex="0033"/>
  <outline>
    <contour>
      <point x="161" y="-38" type="curve" smooth="yes"/>
      <point x="297" y="-38"/>
      <point x="439" y="87"/>
      <point x="439" y="293" type="curve" smooth="yes"/>
      <point x="439" y="410"/>
      <point x="372" y="509"/>
      <point x="287" y="509" type="curve" smooth="yes"/>
      <point x="282" y="509"/>
      <point x="282" y="514"/>
      <point x="286" y="517" type="curve"/>
      <point x="364" y="579"/>
      <point x="391" y="657"/>
      <point x="391" y="723" type="curve" smooth="yes"/>
      <point x="391" y="817"/>
      <point x="320" y="880"/>
      <point x="254" y="880" type="curve" smooth="yes"/>
      <point x="118" y="880"/>
      <point x="68" y="778"/>
      <point x="68" y="745" type="curve" smooth="yes"/>
      <point x="68" y="731"/>
      <point x="79" y="718"/>
      <point x="84" y="718" type="curve" smooth="yes"/>
      <point x="99" y="718"/>
      <point x="115" y="820"/>
      <point x="218" y="820" type="curve" smooth="yes"/>
      <point x="276" y="820"/>
      <point x="312" y="763"/>
      <point x="312" y="681" type="curve" smooth="yes"/>
      <point x="312" y="558"/>
      <point x="209" y="480"/>
      <point x="186" y="463" type="curve" smooth="yes"/>
      <point x="173" y="454"/>
      <point x="159" y="442"/>
      <point x="156" y="429" type="curve" smooth="yes"/>
      <point x="154" y="419"/>
      <point x="166" y="411"/>
      <point x="173" y="416" type="curve" smooth="yes"/>
      <point x="196" y="434"/>
      <point x="223" y="437"/>
      <point x="238" y="437" type="curve" smooth="yes"/>
      <point x="315" y="437"/>
      <point x="354" y="325"/>
      <point x="354" y="217" type="curve" smooth="yes"/>
      <point x="354" y="102"/>
      <point x="281" y="0"/>
      <point x="208" y="0" type="curve" smooth="yes"/>
      <point x="171" y="0"/>
      <point x="150" y="16"/>
      <point x="133" y="32" type="curve" smooth="yes"/>
      <point x="120" y="42"/>
      <point x="109" y="52"/>
      <point x="94" y="52" type="curve" smooth="yes"/>
      <point x="79" y="52"/>
      <point x="50" y="19"/>
      <point x="50" y="5" type="curve" smooth="yes"/>
      <point x="50" y="-11"/>
      <point x="114" y="-38"/>
    </contour>
  </outline>
</glyph>
<glyph name="six" format="1">
  <advance width="480"/>
  <unicode hex="0036"/>
  <outline>
    <contour>
      <point x="252" y="-16" type="curve" smooth="yes"/>
      <point x="349" y="-16"/>
      <point x="457" y="99"/>
      <point x="457" y="254" type="curve" smooth="yes"/>
      <point x="457" y="381"/>
      <point x="395" y="453"/>
      <point x="326" y="453" type="curve" smooth="yes"/>
      <point x="289" y="453"/>
      <point x="243" y="431"/>
      <point x="228" y="419" type="curve" smooth="yes"/>
      <point x="217" y="411"/>
      <point x="210" y="402"/>
      <point x="201" y="390" type="curve" smooth="yes"/>
      <point x="194" y="381"/>
      <point x="196" y="370"/>
      <point x="208" y="378" type="curve" smooth="yes"/>
      <point x="228" y="392"/>
      <point x="253" y="399"/>
      <point x="288" y="399" type="curve" smooth="yes"/>
      <point x="341" y="399"/>
      <point x="379" y="309"/>
      <point x="379" y="215" type="curve" smooth="yes"/>
      <point x="379" y="82"/>
      <point x="330" y="20"/>
      <point x="276" y="21" type="curve" smooth="yes"/>
      <point x="210" y="24"/>
      <point x="135" y="122"/>
      <point x="133" y="302" type="curve"/>
      <point x="133" y="422"/>
      <point x="162" y="550"/>
      <point x="219" y="658" type="curve" smooth="yes"/>
      <point x="269" y="752"/>
      <point x="341" y="831"/>
      <point x="427" y="883" type="curve" smooth="yes"/>
      <point x="434" y="888"/>
      <point x="447" y="894"/>
      <point x="453" y="911" type="curve" smooth="yes"/>
      <point x="455" y="916"/>
      <point x="447" y="925"/>
      <point x="435" y="921" type="curve" smooth="yes"/>
      <point x="332" y="882"/>
      <point x="241" y="800"/>
      <point x="174" y="697" type="curve" smooth="yes"/>
      <point x="95" y="577"/>
      <point x="47" y="428"/>
      <point x="47" y="282" type="curve" smooth="yes"/>
      <point x="47" y="82"/>
      <point x="149" y="-16"/>
    </contour>
  </outline>
</glyph>
<glyph name="question" format="1">
  <advance width="376"/>
  <unicode hex="003F"/>
  <outline>
    <contour>
      <point x="130" y="181" type="curve" smooth="yes"/>
      <point x="144" y="181"/>
      <point x="150" y="223"/>
      <point x="150" y="306" type="curve" smooth="yes"/>
      <point x="150" y="346"/>
      <point x="156" y="380"/>
      <point x="174" y="402" type="curve" smooth="yes"/>
      <point x="202" y="428"/>
      <point x="211" y="434"/>
      <point x="248" y="464" type="curve" smooth="yes"/>
      <point x="278" y="489"/>
      <point x="312" y="525"/>
      <point x="312" y="610" type="curve" smooth="yes"/>
      <point x="312" y="679"/>
      <point x="268" y="798"/>
      <point x="201" y="876" type="curve"/>
      <point x="172" y="909"/>
      <point x="136" y="926"/>
      <point x="108" y="926" type="curve" smooth="yes"/>
      <point x="93" y="926"/>
      <point x="70" y="909"/>
      <point x="70" y="890" type="curve" smooth="yes"/>
      <point x="70" y="863"/>
      <point x="91" y="834"/>
      <point x="112" y="834" type="curve" smooth="yes"/>
      <point x="122" y="834"/>
      <point x="129" y="835"/>
      <point x="136" y="836" type="curve" smooth="yes"/>
      <point x="143" y="837"/>
      <point x="150" y="838"/>
      <point x="159" y="838" type="curve" smooth="yes"/>
      <point x="227" y="838"/>
      <point x="260" y="757"/>
      <point x="260" y="657" type="curve" smooth="yes"/>
      <point x="260" y="603"/>
      <point x="230" y="546"/>
      <point x="199" y="523" type="curve" smooth="yes"/>
      <point x="136" y="474"/>
      <point x="98" y="455"/>
      <point x="98" y="413" type="curve" smooth="yes"/>
      <point x="98" y="356"/>
      <point x="99" y="300"/>
      <point x="106" y="250" type="curve" smooth="yes"/>
      <point x="112" y="204"/>
      <point x="119" y="181"/>
    </contour>
    <contour>
      <point x="150" y="-14" type="curve" smooth="yes"/>
      <point x="183" y="-14"/>
      <point x="210" y="13"/>
      <point x="210" y="46" type="curve" smooth="yes"/>
      <point x="210" y="79"/>
      <point x="183" y="106"/>
      <point x="150" y="106" type="curve" smooth="yes"/>
      <point x="117" y="106"/>
      <point x="90" y="79"/>
      <point x="90" y="46" type="curve" smooth="yes"/>
      <point x="90" y="13"/>
      <point x="117" y="-14"/>
    </contour>
  </outline>
</glyph>
<glyph name="B" format="1">
  <advance width="587"/>
  <unicode hex="0042"/>
  <outline>
    <contour>
      <point x="48" y="-5" type="curve" smooth="yes"/>
      <point x="106" y="-5"/>
      <point x="126" y="2"/>
      <point x="178" y="2" type="curve" smooth="yes"/>
      <point x="218" y="2"/>
      <point x="255" y="-4"/>
      <point x="273" y="-4" type="curve" smooth="yes"/>
      <point x="349" y="-4"/>
      <point x="401" y="14"/>
      <point x="443" y="43" type="curve" smooth="yes"/>
      <point x="484" y="73"/>
      <point x="547" y="118"/>
      <point x="547" y="271" type="curve" smooth="yes"/>
      <point x="547" y="431"/>
      <point x="465" y="472"/>
      <point x="405" y="499" type="curve" smooth="yes"/>
      <point x="399" y="502"/>
      <point x="400" y="510"/>
      <point x="405" y="513" type="curve" smooth="yes"/>
      <point x="438" y="531"/>
      <point x="451" y="544"/>
      <point x="472" y="573" type="curve" smooth="yes"/>
      <point x="487" y="593"/>
      <point x="506" y="643"/>
      <point x="506" y="706" type="curve" smooth="yes"/>
      <point x="506" y="857"/>
      <point x="430" y="912"/>
      <point x="274" y="912" type="curve" smooth="yes"/>
      <point x="216" y="912"/>
      <point x="201" y="905"/>
      <point x="163" y="905" type="curve" smooth="yes"/>
      <point x="122" y="905"/>
      <point x="113" y="908"/>
      <point x="59" y="908" type="curve" smooth="yes"/>
      <point x="42" y="908"/>
      <point x="30" y="905"/>
      <point x="30" y="897" type="curve" smooth="yes"/>
      <point x="30" y="888"/>
      <point x="40" y="878"/>
      <point x="63" y="877" type="curve" smooth="yes"/>
      <point x="112" y="874"/>
      <point x="130" y="852"/>
      <point x="130" y="802" type="curve" smooth="yes"/>
      <point x="130" y="100" type="line" smooth="yes"/>
      <point x="130" y="52"/>
      <point x="102" y="34"/>
      <point x="52" y="24" type="curve" smooth="yes"/>
      <point x="29" y="20"/>
      <point x="19" y="15"/>
      <point x="19" y="6" type="curve" smooth="yes"/>
      <point x="19" y="-2"/>
      <point x="31" y="-5"/>
    </contour>
    <contour>
      <point x="287" y="37" type="curve" smooth="yes"/>
      <point x="236" y="37"/>
      <point x="208" y="54"/>
      <point x="208" y="115" type="curve" smooth="yes"/>
      <point x="208" y="430" type="line" smooth="yes"/>
      <point x="208" y="460"/>
      <point x="218" y="482"/>
      <point x="265" y="482" type="curve" smooth="yes"/>
      <point x="320" y="482"/>
      <point x="362" y="471"/>
      <point x="391" y="448" type="curve" smooth="yes"/>
      <point x="435" y="414"/>
      <point x="453" y="353"/>
      <point x="453" y="259" type="curve" smooth="yes"/>
      <point x="453" y="134"/>
      <point x="375" y="37"/>
    </contour>
    <contour>
      <point x="254" y="509" type="curve" smooth="yes"/>
      <point x="238" y="509"/>
      <point x="208" y="513"/>
      <point x="208" y="562" type="curve" smooth="yes"/>
      <point x="208" y="817" type="line" smooth="yes"/>
      <point x="208" y="862"/>
      <point x="218" y="882"/>
      <point x="274" y="882" type="curve" smooth="yes"/>
      <point x="398" y="882"/>
      <point x="420" y="803"/>
      <point x="420" y="691" type="curve" smooth="yes"/>
      <point x="420" y="606"/>
      <point x="399" y="558"/>
      <point x="362" y="534" type="curve" smooth="yes"/>
      <point x="334" y="515"/>
      <point x="297" y="509"/>
    </contour>
  </outline>
</glyph>
<glyph name="D" format="1">
  <advance width="754"/>
  <unicode hex="0044"/>
  <outline>
    <contour>
      <point x="371" y="-7" type="curve" smooth="yes"/>
      <point x="562" y="-7"/>
      <point x="719" y="212"/>
      <point x="719" y="479" type="curve" smooth="yes"/>
      <point x="719" y="722"/>
      <point x="611" y="920"/>
      <point x="340" y="920" type="curve" smooth="yes"/>
      <point x="313" y="920"/>
      <point x="212" y="912"/>
      <point x="169" y="912" type="curve" smooth="yes"/>
      <point x="121" y="912"/>
      <point x="109" y="914"/>
      <point x="58" y="914" type="curve" smooth="yes"/>
      <point x="41" y="914"/>
      <point x="29" y="910"/>
      <point x="29" y="901" type="curve" smooth="yes"/>
      <point x="29" y="890"/>
      <point x="39" y="887"/>
      <point x="62" y="883" type="curve" smooth="yes"/>
      <point x="112" y="874"/>
      <point x="129" y="858"/>
      <point x="129" y="810" type="curve" smooth="yes"/>
      <point x="129" y="99" type="line" smooth="yes"/>
      <point x="129" y="51"/>
      <point x="112" y="33"/>
      <point x="62" y="24" type="curve" smooth="yes"/>
      <point x="39" y="20"/>
      <point x="29" y="19"/>
      <point x="29" y="8" type="curve" smooth="yes"/>
      <point x="29" y="-2"/>
      <point x="41" y="-5"/>
      <point x="58" y="-5" type="curve" smooth="yes"/>
      <point x="111" y="-5"/>
      <point x="123" y="0"/>
      <point x="163" y="0" type="curve" smooth="yes"/>
      <point x="242" y="0"/>
      <point x="351" y="-7"/>
    </contour>
    <contour>
      <point x="359" y="27" type="curve" smooth="yes"/>
      <point x="282" y="27"/>
      <point x="209" y="28"/>
      <point x="209" y="136" type="curve" smooth="yes"/>
      <point x="209" y="828" type="line" smooth="yes"/>
      <point x="209" y="888"/>
      <point x="258" y="889"/>
      <point x="345" y="889" type="curve" smooth="yes"/>
      <point x="482" y="889"/>
      <point x="624" y="733"/>
      <point x="624" y="461" type="curve" smooth="yes"/>
      <point x="624" y="208"/>
      <point x="515" y="27"/>
    </contour>
  </outline>
</glyph>
<glyph name="E" format="1">
  <advance width="564"/>
  <unicode hex="0045"/>
  <outline>
    <contour>
      <point x="66" y="-5" type="curve" smooth="yes"/>
      <point x="120" y="-5"/>
      <point x="136" y="1"/>
      <point x="181" y="1" type="curve" smooth="yes"/>
      <point x="281" y="1"/>
      <point x="366" y="-5"/>
      <point x="494" y="-5" type="curve" smooth="yes"/>
      <point x="502" y="-5"/>
      <point x="504" y="3"/>
      <point x="508" y="12" type="curve" smooth="yes"/>
      <point x="520" y="39"/>
      <point x="539" y="110"/>
      <point x="539" y="128" type="curve" smooth="yes"/>
      <point x="539" y="136"/>
      <point x="535" y="141"/>
      <point x="528" y="142" type="curve" smooth="yes"/>
      <point x="521" y="143"/>
      <point x="516" y="137"/>
      <point x="512" y="129" type="curve" smooth="yes"/>
      <point x="491" y="89"/>
      <point x="476" y="66"/>
      <point x="455" y="52" type="curve" smooth="yes"/>
      <point x="434" y="39"/>
      <point x="407" y="35"/>
      <point x="364" y="35" type="curve" smooth="yes"/>
      <point x="290" y="35" type="line" smooth="yes"/>
      <point x="245" y="35"/>
      <point x="224" y="51"/>
      <point x="224" y="102" type="curve" smooth="yes"/>
      <point x="224" y="434" type="line" smooth="yes"/>
      <point x="224" y="457"/>
      <point x="235" y="460"/>
      <point x="258" y="460" type="curve" smooth="yes"/>
      <point x="351" y="460" type="line" smooth="yes"/>
      <point x="377" y="460"/>
      <point x="390" y="446"/>
      <point x="397" y="415" type="curve" smooth="yes"/>
      <point x="402" y="394"/>
      <point x="410" y="383"/>
      <point x="420" y="383" type="curve" smooth="yes"/>
      <point x="428" y="383"/>
      <point x="429" y="391"/>
      <point x="429" y="400" type="curve" smooth="yes"/>
      <point x="429" y="408"/>
      <point x="427" y="457"/>
      <point x="427" y="477" type="curve" smooth="yes"/>
      <point x="427" y="493"/>
      <point x="430" y="538"/>
      <point x="430" y="547" type="curve" smooth="yes"/>
      <point x="430" y="557"/>
      <point x="422" y="563"/>
      <point x="417" y="563" type="curve" smooth="yes"/>
      <point x="409" y="563"/>
      <point x="403" y="556"/>
      <point x="399" y="541" type="curve" smooth="yes"/>
      <point x="389" y="504"/>
      <point x="380" y="492"/>
      <point x="341" y="492" type="curve" smooth="yes"/>
      <point x="242" y="492" type="line" smooth="yes"/>
      <point x="232" y="492"/>
      <point x="224" y="502"/>
      <point x="224" y="514" type="curve" smooth="yes"/>
      <point x="224" y="848" type="line" smooth="yes"/>
      <point x="224" y="867"/>
      <point x="249" y="880"/>
      <point x="260" y="880" type="curve" smooth="yes"/>
      <point x="391" y="880" type="line" smooth="yes"/>
      <point x="416" y="880"/>
      <point x="439" y="874"/>
      <point x="458" y="853" type="curve" smooth="yes"/>
      <point x="467" y="843"/>
      <point x="474" y="820"/>
      <point x="480" y="798" type="curve" smooth="yes"/>
      <point x="482" y="791"/>
      <point x="484" y="788"/>
      <point x="491" y="788" type="curve" smooth="yes"/>
      <point x="497" y="788"/>
      <point x="505" y="791"/>
      <point x="505" y="803" type="curve" smooth="yes"/>
      <point x="505" y="830"/>
      <point x="497" y="868"/>
      <point x="490" y="906" type="curve"/>
      <point x="489" y="913"/>
      <point x="479" y="915"/>
      <point x="472" y="915" type="curve" smooth="yes"/>
      <point x="467" y="915"/>
      <point x="432" y="914"/>
      <point x="387" y="913" type="curve" smooth="yes"/>
      <point x="345" y="912"/>
      <point x="294" y="912"/>
      <point x="250" y="912" type="curve" smooth="yes"/>
      <point x="180" y="912"/>
      <point x="148" y="915"/>
      <point x="73" y="915" type="curve" smooth="yes"/>
      <point x="56" y="915"/>
      <point x="44" y="912"/>
      <point x="44" y="904" type="curve" smooth="yes"/>
      <point x="44" y="895"/>
      <point x="54" y="888"/>
      <point x="77" y="884" type="curve" smooth="yes"/>
      <point x="127" y="875"/>
      <point x="144" y="859"/>
      <point x="144" y="811" type="curve" smooth="yes"/>
      <point x="144" y="99" type="line" smooth="yes"/>
      <point x="144" y="51"/>
      <point x="120" y="33"/>
      <point x="70" y="24" type="curve" smooth="yes"/>
      <point x="47" y="20"/>
      <point x="37" y="15"/>
      <point x="37" y="6" type="curve" smooth="yes"/>
      <point x="37" y="-2"/>
      <point x="49" y="-5"/>
    </contour>
  </outline>
</glyph>
<glyph name="F" format="1">
  <advance width="519"/>
  <unicode hex="0046"/>
  <outline>
    <contour>
      <point x="66" y="-5" type="curve" smooth="yes"/>
      <point x="120" y="-5"/>
      <point x="143" y="2"/>
      <point x="192" y="2" type="curve" smooth="yes"/>
      <point x="230" y="2"/>
      <point x="236" y="-5"/>
      <point x="290" y="-5" type="curve" smooth="yes"/>
      <point x="307" y="-5"/>
      <point x="319" y="-2"/>
      <point x="319" y="6" type="curve" smooth="yes"/>
      <point x="319" y="15"/>
      <point x="309" y="20"/>
      <point x="286" y="24" type="curve" smooth="yes"/>
      <point x="236" y="33"/>
      <point x="222" y="58"/>
      <point x="220" y="101" type="curve" smooth="yes"/>
      <point x="217" y="167"/>
      <point x="217" y="373"/>
      <point x="217" y="434" type="curve" smooth="yes"/>
      <point x="217" y="451"/>
      <point x="228" y="458"/>
      <point x="241" y="459" type="curve" smooth="yes"/>
      <point x="262" y="461"/>
      <point x="283" y="461"/>
      <point x="306" y="461" type="curve" smooth="yes"/>
      <point x="322" y="461"/>
      <point x="339" y="460"/>
      <point x="356" y="460" type="curve" smooth="yes"/>
      <point x="372" y="460"/>
      <point x="394" y="451"/>
      <point x="403" y="420" type="curve" smooth="yes"/>
      <point x="405" y="413"/>
      <point x="413" y="397"/>
      <point x="426" y="397" type="curve" smooth="yes"/>
      <point x="434" y="397"/>
      <point x="435" y="405"/>
      <point x="435" y="414" type="curve"/>
      <point x="433" y="443"/>
      <point x="432" y="462"/>
      <point x="432" y="482" type="curve" smooth="yes"/>
      <point x="432" y="498"/>
      <point x="432" y="514"/>
      <point x="435" y="537" type="curve" smooth="yes"/>
      <point x="436" y="546"/>
      <point x="427" y="553"/>
      <point x="422" y="553" type="curve" smooth="yes"/>
      <point x="417" y="553"/>
      <point x="406" y="541"/>
      <point x="404" y="536" type="curve" smooth="yes"/>
      <point x="395" y="513"/>
      <point x="372" y="495"/>
      <point x="343" y="495" type="curve" smooth="yes"/>
      <point x="319" y="495"/>
      <point x="269" y="492"/>
      <point x="227" y="492" type="curve" smooth="yes"/>
      <point x="218" y="492"/>
      <point x="217" y="503"/>
      <point x="217" y="514" type="curve"/>
      <point x="216" y="538"/>
      <point x="216" y="575"/>
      <point x="216" y="609" type="curve" smooth="yes"/>
      <point x="216" y="644"/>
      <point x="216" y="804"/>
      <point x="217" y="829" type="curve" smooth="yes"/>
      <point x="218" y="855"/>
      <point x="220" y="879"/>
      <point x="251" y="879" type="curve" smooth="yes"/>
      <point x="378" y="879" type="line" smooth="yes"/>
      <point x="403" y="879"/>
      <point x="426" y="873"/>
      <point x="445" y="852" type="curve" smooth="yes"/>
      <point x="454" y="842"/>
      <point x="462" y="825"/>
      <point x="468" y="803" type="curve" smooth="yes"/>
      <point x="470" y="796"/>
      <point x="476" y="791"/>
      <point x="483" y="791" type="curve" smooth="yes"/>
      <point x="489" y="791"/>
      <point x="492" y="800"/>
      <point x="492" y="812" type="curve" smooth="yes"/>
      <point x="492" y="826"/>
      <point x="490" y="890"/>
      <point x="487" y="913" type="curve" smooth="yes"/>
      <point x="486" y="920"/>
      <point x="476" y="922"/>
      <point x="469" y="922" type="curve" smooth="yes"/>
      <point x="445" y="922"/>
      <point x="413" y="912"/>
      <point x="370" y="912" type="curve"/>
      <point x="329" y="912"/>
      <point x="283" y="912"/>
      <point x="244" y="912" type="curve" smooth="yes"/>
      <point x="175" y="912"/>
      <point x="145" y="915"/>
      <point x="72" y="915" type="curve" smooth="yes"/>
      <point x="55" y="915"/>
      <point x="43" y="912"/>
      <point x="43" y="904" type="curve" smooth="yes"/>
      <point x="43" y="895"/>
      <point x="53" y="888"/>
      <point x="76" y="884" type="curve" smooth="yes"/>
      <point x="126" y="875"/>
      <point x="137" y="844"/>
      <point x="137" y="784" type="curve" smooth="yes"/>
      <point x="137" y="100" type="line" smooth="yes"/>
      <point x="137" y="51"/>
      <point x="120" y="33"/>
      <point x="70" y="24" type="curve" smooth="yes"/>
      <point x="47" y="20"/>
      <point x="37" y="15"/>
      <point x="37" y="6" type="curve" smooth="yes"/>
      <point x="37" y="-2"/>
      <point x="49" y="-5"/>
    </contour>
  </outline>
</glyph>
<glyph name="G" format="1">
  <advance width="729"/>
  <unicode hex="0047"/>
  <outline>
    <contour>
      <point x="392" y="-14" type="curve" smooth="yes"/>
      <point x="519" y="-14"/>
      <point x="610" y="75"/>
      <point x="630" y="79" type="curve" smooth="yes"/>
      <point x="644" y="81"/>
      <point x="644" y="93"/>
      <point x="644" y="99" type="curve" smooth="yes"/>
      <point x="644" y="104"/>
      <point x="635" y="109"/>
      <point x="631" y="117" type="curve"/>
      <point x="628" y="123"/>
      <point x="625" y="125"/>
      <point x="625" y="133" type="curve" smooth="yes"/>
      <point x="625" y="189" type="line" smooth="yes"/>
      <point x="625" y="223"/>
      <point x="626" y="252"/>
      <point x="630" y="325" type="curve" smooth="yes"/>
      <point x="634" y="352"/>
      <point x="643" y="366"/>
      <point x="672" y="373" type="curve"/>
      <point x="677" y="375"/>
      <point x="693" y="383"/>
      <point x="693" y="391" type="curve" smooth="yes"/>
      <point x="693" y="404"/>
      <point x="677" y="408"/>
      <point x="672" y="408" type="curve" smooth="yes"/>
      <point x="636" y="408"/>
      <point x="618" y="402"/>
      <point x="583" y="402" type="curve" smooth="yes"/>
      <point x="528" y="402"/>
      <point x="511" y="408"/>
      <point x="465" y="408" type="curve" smooth="yes"/>
      <point x="448" y="408"/>
      <point x="437" y="401"/>
      <point x="437" y="391" type="curve" smooth="yes"/>
      <point x="437" y="381"/>
      <point x="445" y="373"/>
      <point x="457" y="373" type="curve" smooth="yes"/>
      <point x="477" y="373"/>
      <point x="538" y="365"/>
      <point x="555" y="343" type="curve" smooth="yes"/>
      <point x="559" y="338"/>
      <point x="560" y="327"/>
      <point x="560" y="313" type="curve" smooth="yes"/>
      <point x="560" y="251"/>
      <point x="558" y="219"/>
      <point x="558" y="186" type="curve" smooth="yes"/>
      <point x="558" y="137"/>
      <point x="546" y="97"/>
      <point x="531" y="77" type="curve" smooth="yes"/>
      <point x="519" y="59"/>
      <point x="483" y="23"/>
      <point x="406" y="23" type="curve" smooth="yes"/>
      <point x="273" y="23"/>
      <point x="144" y="182"/>
      <point x="144" y="455" type="curve" smooth="yes"/>
      <point x="144" y="690"/>
      <point x="241" y="886"/>
      <point x="404" y="886" type="curve" smooth="yes"/>
      <point x="502" y="886"/>
      <point x="538" y="851"/>
      <point x="563" y="821" type="curve" smooth="yes"/>
      <point x="580" y="800"/>
      <point x="585" y="780"/>
      <point x="593" y="756" type="curve" smooth="yes"/>
      <point x="597" y="736"/>
      <point x="603" y="721"/>
      <point x="617" y="721" type="curve" smooth="yes"/>
      <point x="625" y="721"/>
      <point x="632" y="732"/>
      <point x="632" y="743" type="curve" smooth="yes"/>
      <point x="632" y="773"/>
      <point x="627" y="818"/>
      <point x="622" y="863" type="curve" smooth="yes"/>
      <point x="621" y="873"/>
      <point x="619" y="875"/>
      <point x="613" y="879" type="curve" smooth="yes"/>
      <point x="586" y="897"/>
      <point x="483" y="925"/>
      <point x="413" y="925" type="curve" smooth="yes"/>
      <point x="214" y="925"/>
      <point x="45" y="711"/>
      <point x="45" y="437" type="curve" smooth="yes"/>
      <point x="45" y="180"/>
      <point x="207" y="-14"/>
    </contour>
  </outline>
</glyph>
<glyph name="H" format="1">
  <advance width="810"/>
  <unicode hex="0048"/>
  <outline>
    <contour>
      <point x="66" y="-5" type="curve" smooth="yes"/>
      <point x="120" y="-5"/>
      <point x="133" y="0"/>
      <point x="176" y="0" type="curve" smooth="yes"/>
      <point x="222" y="0"/>
      <point x="239" y="-5"/>
      <point x="293" y="-5" type="curve" smooth="yes"/>
      <point x="310" y="-5"/>
      <point x="322" y="0"/>
      <point x="322" y="8" type="curve" smooth="yes"/>
      <point x="322" y="17"/>
      <point x="313" y="20"/>
      <point x="290" y="24" type="curve" smooth="yes"/>
      <point x="244" y="32"/>
      <point x="210" y="64"/>
      <point x="210" y="106" type="curve" smooth="yes"/>
      <point x="210" y="430" type="line" smooth="yes"/>
      <point x="210" y="438"/>
      <point x="210" y="441"/>
      <point x="215" y="441" type="curve" smooth="yes"/>
      <point x="597" y="441" type="line" smooth="yes"/>
      <point x="603" y="441"/>
      <point x="602" y="433"/>
      <point x="602" y="426" type="curve" smooth="yes"/>
      <point x="602" y="97" type="line" smooth="yes"/>
      <point x="602" y="54"/>
      <point x="575" y="32"/>
      <point x="533" y="24" type="curve" smooth="yes"/>
      <point x="510" y="20"/>
      <point x="501" y="17"/>
      <point x="501" y="8" type="curve" smooth="yes"/>
      <point x="501" y="0"/>
      <point x="513" y="-5"/>
      <point x="530" y="-5" type="curve" smooth="yes"/>
      <point x="584" y="-5"/>
      <point x="595" y="0"/>
      <point x="637" y="0" type="curve" smooth="yes"/>
      <point x="678" y="0"/>
      <point x="687" y="-5"/>
      <point x="741" y="-5" type="curve" smooth="yes"/>
      <point x="758" y="-5"/>
      <point x="770" y="0"/>
      <point x="770" y="8" type="curve" smooth="yes"/>
      <point x="770" y="17"/>
      <point x="761" y="20"/>
      <point x="738" y="24" type="curve" smooth="yes"/>
      <point x="688" y="33"/>
      <point x="682" y="51"/>
      <point x="682" y="100" type="curve" smooth="yes"/>
      <point x="682" y="814" type="line" smooth="yes"/>
      <point x="682" y="852"/>
      <point x="685" y="875"/>
      <point x="735" y="884" type="curve" smooth="yes"/>
      <point x="758" y="888"/>
      <point x="768" y="893"/>
      <point x="768" y="902" type="curve" smooth="yes"/>
      <point x="768" y="910"/>
      <point x="758" y="915"/>
      <point x="739" y="915" type="curve" smooth="yes"/>
      <point x="685" y="915"/>
      <point x="684" y="912"/>
      <point x="648" y="912" type="curve" smooth="yes"/>
      <point x="603" y="912"/>
      <point x="586" y="915"/>
      <point x="532" y="915" type="curve" smooth="yes"/>
      <point x="514" y="915"/>
      <point x="503" y="910"/>
      <point x="503" y="902" type="curve" smooth="yes"/>
      <point x="503" y="893"/>
      <point x="513" y="888"/>
      <point x="536" y="884" type="curve" smooth="yes"/>
      <point x="586" y="875"/>
      <point x="602" y="850"/>
      <point x="602" y="814" type="curve" smooth="yes"/>
      <point x="602" y="491" type="line" smooth="yes"/>
      <point x="602" y="482"/>
      <point x="600" y="479"/>
      <point x="595" y="479" type="curve" smooth="yes"/>
      <point x="224" y="479" type="line" smooth="yes"/>
      <point x="218" y="479"/>
      <point x="210" y="480"/>
      <point x="210" y="488" type="curve" smooth="yes"/>
      <point x="210" y="813" type="line" smooth="yes"/>
      <point x="210" y="852"/>
      <point x="228" y="875"/>
      <point x="278" y="884" type="curve" smooth="yes"/>
      <point x="301" y="888"/>
      <point x="311" y="893"/>
      <point x="311" y="902" type="curve" smooth="yes"/>
      <point x="311" y="910"/>
      <point x="302" y="915"/>
      <point x="282" y="915" type="curve" smooth="yes"/>
      <point x="228" y="915"/>
      <point x="217" y="912"/>
      <point x="176" y="912" type="curve" smooth="yes"/>
      <point x="136" y="912"/>
      <point x="127" y="915"/>
      <point x="73" y="915" type="curve" smooth="yes"/>
      <point x="53" y="915"/>
      <point x="44" y="910"/>
      <point x="44" y="902" type="curve" smooth="yes"/>
      <point x="44" y="893"/>
      <point x="54" y="888"/>
      <point x="77" y="884" type="curve" smooth="yes"/>
      <point x="127" y="875"/>
      <point x="130" y="859"/>
      <point x="130" y="813" type="curve" smooth="yes"/>
      <point x="130" y="99" type="line" smooth="yes"/>
      <point x="130" y="51"/>
      <point x="119" y="33"/>
      <point x="69" y="24" type="curve" smooth="yes"/>
      <point x="46" y="20"/>
      <point x="37" y="17"/>
      <point x="37" y="8" type="curve" smooth="yes"/>
      <point x="37" y="0"/>
      <point x="49" y="-5"/>
    </contour>
  </outline>
</glyph>
<glyph name="J" format="1">
  <advance width="340"/>
  <unicode hex="004A"/>
  <outline>
    <contour>
      <point x="34" y="-200" type="curve" smooth="yes"/>
      <point x="73" y="-200"/>
      <point x="104" y="-178"/>
      <point x="131" y="-146" type="curve" smooth="yes"/>
      <point x="163" y="-108"/>
      <point x="210" y="-37"/>
      <point x="210" y="47" type="curve" smooth="yes"/>
      <point x="210" y="813" type="line" smooth="yes"/>
      <point x="210" y="859"/>
      <point x="217" y="875"/>
      <point x="267" y="884" type="curve" smooth="yes"/>
      <point x="290" y="888"/>
      <point x="300" y="895"/>
      <point x="300" y="904" type="curve" smooth="yes"/>
      <point x="300" y="912"/>
      <point x="288" y="915"/>
      <point x="271" y="915" type="curve" smooth="yes"/>
      <point x="217" y="915"/>
      <point x="214" y="912"/>
      <point x="177" y="912" type="curve" smooth="yes"/>
      <point x="131" y="912"/>
      <point x="114" y="915"/>
      <point x="60" y="915" type="curve" smooth="yes"/>
      <point x="43" y="915"/>
      <point x="31" y="912"/>
      <point x="31" y="904" type="curve" smooth="yes"/>
      <point x="31" y="895"/>
      <point x="42" y="888"/>
      <point x="64" y="884" type="curve" smooth="yes"/>
      <point x="112" y="875"/>
      <point x="130" y="859"/>
      <point x="130" y="813" type="curve" smooth="yes"/>
      <point x="130" y="-1" type="line" smooth="yes"/>
      <point x="130" y="-98"/>
      <point x="111" y="-159"/>
      <point x="64" y="-159" type="curve" smooth="yes"/>
      <point x="47" y="-159"/>
      <point x="34" y="-151"/>
      <point x="17" y="-129" type="curve" smooth="yes"/>
      <point x="3" y="-111"/>
      <point x="-13" y="-104"/>
      <point x="-30" y="-104" type="curve" smooth="yes"/>
      <point x="-45" y="-104"/>
      <point x="-69" y="-128"/>
      <point x="-69" y="-151" type="curve" smooth="yes"/>
      <point x="-69" y="-182"/>
      <point x="-34" y="-200"/>
    </contour>
  </outline>
</glyph>
<glyph name="K" format="1">
  <advance width="681"/>
  <unicode hex="004B"/>
  <outline>
    <contour>
      <point x="60" y="-5" type="curve" smooth="yes"/>
      <point x="114" y="-5"/>
      <point x="137" y="2"/>
      <point x="186" y="2" type="curve" smooth="yes"/>
      <point x="224" y="2"/>
      <point x="230" y="-5"/>
      <point x="284" y="-5" type="curve" smooth="yes"/>
      <point x="301" y="-5"/>
      <point x="313" y="-2"/>
      <point x="313" y="6" type="curve" smooth="yes"/>
      <point x="313" y="15"/>
      <point x="303" y="20"/>
      <point x="280" y="24" type="curve" smooth="yes"/>
      <point x="230" y="33"/>
      <point x="218" y="67"/>
      <point x="216" y="110" type="curve" smooth="yes"/>
      <point x="213" y="190"/>
      <point x="211" y="375"/>
      <point x="211" y="438" type="curve" smooth="yes"/>
      <point x="211" y="445"/>
      <point x="210" y="459"/>
      <point x="215" y="459" type="curve" smooth="yes"/>
      <point x="220" y="459"/>
      <point x="231" y="445"/>
      <point x="238" y="433" type="curve" smooth="yes"/>
      <point x="456" y="74" type="line" smooth="yes"/>
      <point x="462" y="64"/>
      <point x="467" y="55"/>
      <point x="467" y="47" type="curve" smooth="yes"/>
      <point x="467" y="39"/>
      <point x="459" y="32"/>
      <point x="439" y="27" type="curve"/>
      <point x="420" y="23"/>
      <point x="412" y="19"/>
      <point x="412" y="10" type="curve" smooth="yes"/>
      <point x="412" y="2"/>
      <point x="424" y="-1"/>
      <point x="441" y="-1" type="curve" smooth="yes"/>
      <point x="486" y="-1"/>
      <point x="495" y="0"/>
      <point x="520" y="0" type="curve" smooth="yes"/>
      <point x="575" y="0"/>
      <point x="600" y="-5"/>
      <point x="659" y="-5" type="curve" smooth="yes"/>
      <point x="676" y="-5"/>
      <point x="688" y="-2"/>
      <point x="688" y="6" type="curve" smooth="yes"/>
      <point x="688" y="15"/>
      <point x="678" y="19"/>
      <point x="655" y="24" type="curve" smooth="yes"/>
      <point x="598" y="36"/>
      <point x="578" y="41"/>
      <point x="544" y="95" type="curve" smooth="yes"/>
      <point x="299" y="485" type="line" smooth="yes"/>
      <point x="294" y="493"/>
      <point x="289" y="498"/>
      <point x="294" y="503" type="curve"/>
      <point x="364" y="632"/>
      <point x="422" y="721"/>
      <point x="490" y="819" type="curve" smooth="yes"/>
      <point x="512" y="851"/>
      <point x="592" y="876"/>
      <point x="642" y="885" type="curve" smooth="yes"/>
      <point x="665" y="889"/>
      <point x="675" y="896"/>
      <point x="675" y="905" type="curve" smooth="yes"/>
      <point x="675" y="912"/>
      <point x="666" y="916"/>
      <point x="653" y="916" type="curve" smooth="yes"/>
      <point x="640" y="916"/>
      <point x="548" y="912"/>
      <point x="491" y="912" type="curve" smooth="yes"/>
      <point x="437" y="912" type="line" smooth="yes"/>
      <point x="420" y="912"/>
      <point x="408" y="909"/>
      <point x="408" y="901" type="curve" smooth="yes"/>
      <point x="408" y="892"/>
      <point x="416" y="887"/>
      <point x="439" y="881" type="curve" smooth="yes"/>
      <point x="451" y="878"/>
      <point x="458" y="869"/>
      <point x="458" y="858" type="curve" smooth="yes"/>
      <point x="458" y="849"/>
      <point x="453" y="836"/>
      <point x="446" y="824" type="curve" smooth="yes"/>
      <point x="243" y="502" type="line"/>
      <point x="236" y="489"/>
      <point x="223" y="479"/>
      <point x="216" y="479" type="curve" smooth="yes"/>
      <point x="211" y="479"/>
      <point x="211" y="493"/>
      <point x="211" y="498" type="curve" smooth="yes"/>
      <point x="211" y="812" type="line" smooth="yes"/>
      <point x="211" y="851"/>
      <point x="215" y="874"/>
      <point x="265" y="883" type="curve" smooth="yes"/>
      <point x="288" y="887"/>
      <point x="298" y="894"/>
      <point x="298" y="903" type="curve" smooth="yes"/>
      <point x="298" y="911"/>
      <point x="286" y="914"/>
      <point x="269" y="914" type="curve" smooth="yes"/>
      <point x="215" y="914"/>
      <point x="210" y="912"/>
      <point x="172" y="912" type="curve" smooth="yes"/>
      <point x="128" y="912"/>
      <point x="114" y="914"/>
      <point x="60" y="914" type="curve" smooth="yes"/>
      <point x="43" y="914"/>
      <point x="31" y="911"/>
      <point x="31" y="903" type="curve" smooth="yes"/>
      <point x="31" y="894"/>
      <point x="41" y="887"/>
      <point x="64" y="883" type="curve" smooth="yes"/>
      <point x="114" y="874"/>
      <point x="131" y="858"/>
      <point x="131" y="812" type="curve" smooth="yes"/>
      <point x="131" y="101" type="line" smooth="yes"/>
      <point x="131" y="51"/>
      <point x="114" y="33"/>
      <point x="64" y="24" type="curve" smooth="yes"/>
      <point x="41" y="20"/>
      <point x="31" y="15"/>
      <point x="31" y="6" type="curve" smooth="yes"/>
      <point x="31" y="-2"/>
      <point x="43" y="-5"/>
    </contour>
  </outline>
</glyph>
<glyph name="M" format="1">
  <advance width="901"/>
  <unicode hex="004D"/>
  <outline>
    <contour>
      <point x="48" y="-5" type="curve" smooth="yes"/>
      <point x="102" y="-5"/>
      <point x="103" y="0"/>
      <point x="139" y="0" type="curve" smooth="yes"/>
      <point x="176" y="0"/>
      <point x="179" y="-5"/>
      <point x="233" y="-5" type="curve" smooth="yes"/>
      <point x="250" y="-5"/>
      <point x="262" y="-2"/>
      <point x="262" y="6" type="curve" smooth="yes"/>
      <point x="262" y="15"/>
      <point x="252" y="20"/>
      <point x="229" y="24" type="curve" smooth="yes"/>
      <point x="188" y="32"/>
      <point x="164" y="66"/>
      <point x="164" y="126" type="curve" smooth="yes"/>
      <point x="164" y="351"/>
      <point x="177" y="503"/>
      <point x="196" y="736" type="curve"/>
      <point x="197" y="743"/>
      <point x="206" y="743"/>
      <point x="209" y="736" type="curve"/>
      <point x="284" y="463"/>
      <point x="341" y="239"/>
      <point x="393" y="-4" type="curve" smooth="yes"/>
      <point x="396" y="-13"/>
      <point x="419" y="-12"/>
      <point x="421" y="-5" type="curve" smooth="yes"/>
      <point x="641" y="729" type="line" smooth="yes"/>
      <point x="648" y="742"/>
      <point x="655" y="743"/>
      <point x="657" y="729" type="curve"/>
      <point x="663" y="497"/>
      <point x="669" y="344"/>
      <point x="669" y="96" type="curve" smooth="yes"/>
      <point x="669" y="49"/>
      <point x="657" y="29"/>
      <point x="618" y="24" type="curve" smooth="yes"/>
      <point x="595" y="21"/>
      <point x="585" y="15"/>
      <point x="585" y="6" type="curve" smooth="yes"/>
      <point x="585" y="-2"/>
      <point x="597" y="-5"/>
      <point x="614" y="-5" type="curve" smooth="yes"/>
      <point x="668" y="-5"/>
      <point x="678" y="0"/>
      <point x="719" y="0" type="curve" smooth="yes"/>
      <point x="765" y="0"/>
      <point x="782" y="-5"/>
      <point x="836" y="-5" type="curve" smooth="yes"/>
      <point x="853" y="-5"/>
      <point x="865" y="-2"/>
      <point x="865" y="6" type="curve" smooth="yes"/>
      <point x="865" y="15"/>
      <point x="855" y="20"/>
      <point x="832" y="24" type="curve" smooth="yes"/>
      <point x="782" y="33"/>
      <point x="759" y="54"/>
      <point x="757" y="95" type="curve" smooth="yes"/>
      <point x="749" y="331"/>
      <point x="735" y="543"/>
      <point x="735" y="833" type="curve" smooth="yes"/>
      <point x="735" y="848"/>
      <point x="745" y="861"/>
      <point x="759" y="867" type="curve" smooth="yes"/>
      <point x="777" y="875"/>
      <point x="800" y="883"/>
      <point x="818" y="890" type="curve" smooth="yes"/>
      <point x="838" y="898"/>
      <point x="844" y="902"/>
      <point x="844" y="911" type="curve" smooth="yes"/>
      <point x="844" y="920"/>
      <point x="829" y="921"/>
      <point x="823" y="921" type="curve" smooth="yes"/>
      <point x="800" y="921"/>
      <point x="749" y="913"/>
      <point x="709" y="913" type="curve" smooth="yes"/>
      <point x="673" y="913" type="line" smooth="yes"/>
      <point x="668" y="913"/>
      <point x="665" y="908"/>
      <point x="663" y="900" type="curve" smooth="yes"/>
      <point x="658" y="879"/>
      <point x="652" y="847"/>
      <point x="645" y="825" type="curve" smooth="yes"/>
      <point x="444" y="150" type="line" smooth="yes"/>
      <point x="438" y="131"/>
      <point x="432" y="133"/>
      <point x="428" y="153" type="curve" smooth="yes"/>
      <point x="266" y="819" type="line" smooth="yes"/>
      <point x="260" y="845"/>
      <point x="252" y="872"/>
      <point x="245" y="896" type="curve" smooth="yes"/>
      <point x="242" y="906"/>
      <point x="235" y="912"/>
      <point x="226" y="912" type="curve" smooth="yes"/>
      <point x="200" y="912"/>
      <point x="102" y="920"/>
      <point x="76" y="920" type="curve" smooth="yes"/>
      <point x="56" y="920"/>
      <point x="42" y="919"/>
      <point x="42" y="909" type="curve" smooth="yes"/>
      <point x="42" y="900"/>
      <point x="51" y="892"/>
      <point x="64" y="889" type="curve" smooth="yes"/>
      <point x="94" y="882"/>
      <point x="115" y="879"/>
      <point x="139" y="859" type="curve" smooth="yes"/>
      <point x="155" y="845"/>
      <point x="155" y="828"/>
      <point x="155" y="793" type="curve" smooth="yes"/>
      <point x="155" y="778"/>
      <point x="155" y="758"/>
      <point x="155" y="743" type="curve" smooth="yes"/>
      <point x="155" y="617"/>
      <point x="138" y="373"/>
      <point x="114" y="102" type="curve" smooth="yes"/>
      <point x="107" y="55"/>
      <point x="85" y="30"/>
      <point x="52" y="24" type="curve" smooth="yes"/>
      <point x="29" y="20"/>
      <point x="19" y="15"/>
      <point x="19" y="6" type="curve" smooth="yes"/>
      <point x="19" y="-2"/>
      <point x="31" y="-5"/>
    </contour>
  </outline>
</glyph>
<glyph name="N" format="1">
  <advance width="792"/>
  <unicode hex="004E"/>
  <outline>
    <contour>
      <point x="668" y="-17" type="curve" smooth="yes"/>
      <point x="678" y="-17"/>
      <point x="689" y="-13"/>
      <point x="689" y="8" type="curve" smooth="yes"/>
      <point x="689" y="21"/>
      <point x="684" y="57"/>
      <point x="684" y="130" type="curve" smooth="yes"/>
      <point x="684" y="369"/>
      <point x="685" y="803"/>
      <point x="686" y="830" type="curve" smooth="yes"/>
      <point x="688" y="863"/>
      <point x="699" y="875"/>
      <point x="749" y="884" type="curve" smooth="yes"/>
      <point x="772" y="888"/>
      <point x="782" y="895"/>
      <point x="782" y="904" type="curve" smooth="yes"/>
      <point x="782" y="912"/>
      <point x="770" y="915"/>
      <point x="753" y="915" type="curve" smooth="yes"/>
      <point x="692" y="915"/>
      <point x="686" y="912"/>
      <point x="638" y="912" type="curve" smooth="yes"/>
      <point x="619" y="912"/>
      <point x="600" y="912"/>
      <point x="581" y="912" type="curve" smooth="yes"/>
      <point x="564" y="912"/>
      <point x="540" y="909"/>
      <point x="540" y="901" type="curve" smooth="yes"/>
      <point x="540" y="892"/>
      <point x="562" y="885"/>
      <point x="585" y="881" type="curve" smooth="yes"/>
      <point x="607" y="877"/>
      <point x="642" y="852"/>
      <point x="643" y="826" type="curve"/>
      <point x="643" y="525"/>
      <point x="642" y="249"/>
      <point x="641" y="187" type="curve"/>
      <point x="640" y="172"/>
      <point x="636" y="166"/>
      <point x="631" y="166" type="curve" smooth="yes"/>
      <point x="623" y="166"/>
      <point x="611" y="180"/>
      <point x="606" y="186" type="curve" smooth="yes"/>
      <point x="579" y="218"/>
      <point x="228" y="848"/>
      <point x="209" y="889" type="curve"/>
      <point x="202" y="903"/>
      <point x="197" y="915"/>
      <point x="185" y="915" type="curve" smooth="yes"/>
      <point x="113" y="915"/>
      <point x="113" y="920"/>
      <point x="35" y="920" type="curve" smooth="yes"/>
      <point x="28" y="920"/>
      <point x="12" y="918"/>
      <point x="12" y="906" type="curve" smooth="yes"/>
      <point x="12" y="894"/>
      <point x="37" y="884"/>
      <point x="43" y="882" type="curve" smooth="yes"/>
      <point x="102" y="862"/>
      <point x="142" y="840"/>
      <point x="142" y="769" type="curve" smooth="yes"/>
      <point x="142" y="496"/>
      <point x="132" y="231"/>
      <point x="124" y="107" type="curve" smooth="yes"/>
      <point x="120" y="66"/>
      <point x="104" y="35"/>
      <point x="66" y="25" type="curve" smooth="yes"/>
      <point x="43" y="19"/>
      <point x="33" y="15"/>
      <point x="33" y="6" type="curve" smooth="yes"/>
      <point x="33" y="-2"/>
      <point x="45" y="-5"/>
      <point x="62" y="-5" type="curve" smooth="yes"/>
      <point x="116" y="-5"/>
      <point x="117" y="0"/>
      <point x="153" y="0" type="curve" smooth="yes"/>
      <point x="190" y="0"/>
      <point x="193" y="-5"/>
      <point x="247" y="-5" type="curve" smooth="yes"/>
      <point x="264" y="-5"/>
      <point x="276" y="-2"/>
      <point x="276" y="6" type="curve" smooth="yes"/>
      <point x="276" y="15"/>
      <point x="266" y="20"/>
      <point x="243" y="24" type="curve" smooth="yes"/>
      <point x="193" y="33"/>
      <point x="179" y="68"/>
      <point x="179" y="104" type="curve" smooth="yes"/>
      <point x="179" y="311"/>
      <point x="184" y="544"/>
      <point x="184" y="711" type="curve" smooth="yes"/>
      <point x="184" y="719"/>
      <point x="186" y="732"/>
      <point x="193" y="732" type="curve" smooth="yes"/>
      <point x="198" y="732"/>
      <point x="203" y="724"/>
      <point x="212" y="712" type="curve" smooth="yes"/>
      <point x="242" y="671"/>
      <point x="564" y="86"/>
      <point x="582" y="46" type="curve" smooth="yes"/>
      <point x="614" y="2"/>
      <point x="656" y="-17"/>
    </contour>
  </outline>
</glyph>
<glyph name="P" format="1">
  <advance width="552"/>
  <unicode hex="0050"/>
  <outline>
    <contour>
      <point x="53" y="-5" type="curve" smooth="yes"/>
      <point x="107" y="-5"/>
      <point x="132" y="2"/>
      <point x="183" y="2" type="curve" smooth="yes"/>
      <point x="221" y="2"/>
      <point x="227" y="-5"/>
      <point x="281" y="-5" type="curve" smooth="yes"/>
      <point x="298" y="-5"/>
      <point x="310" y="-2"/>
      <point x="310" y="6" type="curve" smooth="yes"/>
      <point x="310" y="15"/>
      <point x="300" y="20"/>
      <point x="277" y="24" type="curve" smooth="yes"/>
      <point x="227" y="33"/>
      <point x="210" y="63"/>
      <point x="210" y="111" type="curve" smooth="yes"/>
      <point x="210" y="848" type="line" smooth="yes"/>
      <point x="210" y="878"/>
      <point x="236" y="890"/>
      <point x="274" y="890" type="curve" smooth="yes"/>
      <point x="371" y="890"/>
      <point x="441" y="816"/>
      <point x="441" y="661" type="curve" smooth="yes"/>
      <point x="441" y="490"/>
      <point x="400" y="388"/>
      <point x="320" y="388" type="curve" smooth="yes"/>
      <point x="293" y="388"/>
      <point x="280" y="390"/>
      <point x="274" y="390" type="curve" smooth="yes"/>
      <point x="267" y="390"/>
      <point x="258" y="381"/>
      <point x="258" y="376" type="curve" smooth="yes"/>
      <point x="258" y="368"/>
      <point x="274" y="357"/>
      <point x="303" y="357" type="curve" smooth="yes"/>
      <point x="456" y="357"/>
      <point x="527" y="500"/>
      <point x="527" y="671" type="curve" smooth="yes"/>
      <point x="527" y="826"/>
      <point x="426" y="918"/>
      <point x="274" y="918" type="curve" smooth="yes"/>
      <point x="246" y="918"/>
      <point x="203" y="912"/>
      <point x="163" y="912" type="curve" smooth="yes"/>
      <point x="122" y="912"/>
      <point x="119" y="913"/>
      <point x="65" y="913" type="curve" smooth="yes"/>
      <point x="48" y="913"/>
      <point x="36" y="910"/>
      <point x="36" y="902" type="curve" smooth="yes"/>
      <point x="36" y="893"/>
      <point x="46" y="886"/>
      <point x="69" y="882" type="curve" smooth="yes"/>
      <point x="119" y="873"/>
      <point x="130" y="842"/>
      <point x="130" y="782" type="curve" smooth="yes"/>
      <point x="130" y="100" type="line" smooth="yes"/>
      <point x="130" y="51"/>
      <point x="107" y="33"/>
      <point x="57" y="24" type="curve" smooth="yes"/>
      <point x="34" y="20"/>
      <point x="24" y="15"/>
      <point x="24" y="6" type="curve" smooth="yes"/>
      <point x="24" y="-2"/>
      <point x="36" y="-5"/>
    </contour>
  </outline>
</glyph>
<glyph name="R" format="1">
  <advance width="713"/>
  <unicode hex="0052"/>
  <outline>
    <contour>
      <point x="637" y="-21" type="curve" smooth="yes"/>
      <point x="662" y="-21"/>
      <point x="718" y="-15"/>
      <point x="718" y="14" type="curve" smooth="yes"/>
      <point x="718" y="22"/>
      <point x="713" y="25"/>
      <point x="703" y="25" type="curve" smooth="yes"/>
      <point x="656" y="25"/>
      <point x="623" y="28"/>
      <point x="588" y="72" type="curve" smooth="yes"/>
      <point x="494" y="194"/>
      <point x="447" y="302"/>
      <point x="385" y="437" type="curve" smooth="yes"/>
      <point x="381" y="445"/>
      <point x="380" y="452"/>
      <point x="385" y="455" type="curve"/>
      <point x="440" y="494"/>
      <point x="503" y="561"/>
      <point x="503" y="687" type="curve" smooth="yes"/>
      <point x="503" y="840"/>
      <point x="424" y="917"/>
      <point x="278" y="917" type="curve" smooth="yes"/>
      <point x="220" y="917"/>
      <point x="201" y="912"/>
      <point x="163" y="912" type="curve" smooth="yes"/>
      <point x="122" y="912"/>
      <point x="119" y="913"/>
      <point x="65" y="913" type="curve" smooth="yes"/>
      <point x="48" y="913"/>
      <point x="36" y="910"/>
      <point x="36" y="902" type="curve" smooth="yes"/>
      <point x="36" y="893"/>
      <point x="46" y="884"/>
      <point x="69" y="882" type="curve" smooth="yes"/>
      <point x="126" y="877"/>
      <point x="130" y="862"/>
      <point x="130" y="786" type="curve" smooth="yes"/>
      <point x="130" y="100" type="line" smooth="yes"/>
      <point x="130" y="51"/>
      <point x="107" y="33"/>
      <point x="57" y="24" type="curve" smooth="yes"/>
      <point x="34" y="20"/>
      <point x="24" y="15"/>
      <point x="24" y="6" type="curve" smooth="yes"/>
      <point x="24" y="-2"/>
      <point x="36" y="-5"/>
      <point x="53" y="-5" type="curve" smooth="yes"/>
      <point x="107" y="-5"/>
      <point x="132" y="2"/>
      <point x="183" y="2" type="curve" smooth="yes"/>
      <point x="221" y="2"/>
      <point x="227" y="-5"/>
      <point x="281" y="-5" type="curve" smooth="yes"/>
      <point x="298" y="-5"/>
      <point x="310" y="-2"/>
      <point x="310" y="6" type="curve" smooth="yes"/>
      <point x="310" y="15"/>
      <point x="300" y="20"/>
      <point x="277" y="24" type="curve" smooth="yes"/>
      <point x="227" y="33"/>
      <point x="210" y="67"/>
      <point x="210" y="110" type="curve" smooth="yes"/>
      <point x="210" y="413" type="line" smooth="yes"/>
      <point x="210" y="425"/>
      <point x="214" y="434"/>
      <point x="225" y="433" type="curve" smooth="yes"/>
      <point x="243" y="431"/>
      <point x="275" y="426"/>
      <point x="304" y="412" type="curve" smooth="yes"/>
      <point x="324" y="402"/>
      <point x="336" y="391"/>
      <point x="350" y="358" type="curve" smooth="yes"/>
      <point x="416" y="208"/>
      <point x="450" y="147"/>
      <point x="499" y="59" type="curve" smooth="yes"/>
      <point x="534" y="-5"/>
      <point x="580" y="-21"/>
    </contour>
    <contour>
      <point x="263" y="456" type="curve" smooth="yes"/>
      <point x="230" y="456"/>
      <point x="210" y="458"/>
      <point x="210" y="491" type="curve" smooth="yes"/>
      <point x="210" y="571"/>
      <point x="211" y="760"/>
      <point x="212" y="794" type="curve" smooth="yes"/>
      <point x="214" y="863"/>
      <point x="223" y="887"/>
      <point x="266" y="887" type="curve" smooth="yes"/>
      <point x="392" y="887"/>
      <point x="413" y="787"/>
      <point x="413" y="670" type="curve" smooth="yes"/>
      <point x="413" y="558"/>
      <point x="355" y="456"/>
    </contour>
  </outline>
</glyph>
<glyph name="W" format="1">
  <advance width="916"/>
  <unicode hex="0057"/>
  <outline>
    <contour>
      <point x="335" y="-16" type="curve" smooth="yes"/>
      <point x="343" y="-16"/>
      <point x="352" y="1"/>
      <point x="357" y="15" type="curve"/>
      <point x="404" y="193"/>
      <point x="436" y="336"/>
      <point x="469" y="459" type="curve" smooth="yes"/>
      <point x="474" y="476"/>
      <point x="476" y="478"/>
      <point x="480" y="467" type="curve"/>
      <point x="529" y="278"/>
      <point x="576" y="104"/>
      <point x="605" y="7" type="curve"/>
      <point x="609" y="-2"/>
      <point x="617" y="-12"/>
      <point x="622" y="-12" type="curve" smooth="yes"/>
      <point x="629" y="-12"/>
      <point x="636" y="5"/>
      <point x="638" y="14" type="curve" smooth="yes"/>
      <point x="815" y="796" type="line" smooth="yes"/>
      <point x="822" y="828"/>
      <point x="848" y="873"/>
      <point x="897" y="884" type="curve" smooth="yes"/>
      <point x="920" y="889"/>
      <point x="930" y="895"/>
      <point x="930" y="904" type="curve" smooth="yes"/>
      <point x="930" y="912"/>
      <point x="918" y="915"/>
      <point x="901" y="915" type="curve" smooth="yes"/>
      <point x="876" y="915"/>
      <point x="844" y="912"/>
      <point x="811" y="912" type="curve" smooth="yes"/>
      <point x="785" y="912"/>
      <point x="765" y="913"/>
      <point x="739" y="913" type="curve" smooth="yes"/>
      <point x="722" y="913"/>
      <point x="710" y="910"/>
      <point x="710" y="902" type="curve" smooth="yes"/>
      <point x="710" y="893"/>
      <point x="729" y="886"/>
      <point x="743" y="882" type="curve" smooth="yes"/>
      <point x="765" y="876"/>
      <point x="773" y="859"/>
      <point x="773" y="839" type="curve" smooth="yes"/>
      <point x="773" y="828"/>
      <point x="772" y="815"/>
      <point x="770" y="801" type="curve" smooth="yes"/>
      <point x="729" y="565"/>
      <point x="678" y="302"/>
      <point x="645" y="154" type="curve"/>
      <point x="641" y="145"/>
      <point x="637" y="141"/>
      <point x="634" y="148" type="curve"/>
      <point x="528" y="561" type="line"/>
      <point x="525" y="570"/>
      <point x="530" y="597"/>
      <point x="534" y="610" type="curve"/>
      <point x="550" y="674"/>
      <point x="566" y="754"/>
      <point x="590" y="826" type="curve" smooth="yes"/>
      <point x="601" y="860"/>
      <point x="615" y="875"/>
      <point x="658" y="884" type="curve" smooth="yes"/>
      <point x="681" y="889"/>
      <point x="691" y="895"/>
      <point x="691" y="904" type="curve" smooth="yes"/>
      <point x="691" y="912"/>
      <point x="679" y="915"/>
      <point x="662" y="915" type="curve" smooth="yes"/>
      <point x="638" y="915"/>
      <point x="626" y="912"/>
      <point x="603" y="912" type="curve" smooth="yes"/>
      <point x="584" y="912"/>
      <point x="580" y="914"/>
      <point x="551" y="914" type="curve" smooth="yes"/>
      <point x="534" y="914"/>
      <point x="522" y="911"/>
      <point x="522" y="903" type="curve" smooth="yes"/>
      <point x="522" y="886"/>
      <point x="559" y="884"/>
      <point x="559" y="860" type="curve" smooth="yes"/>
      <point x="559" y="858"/>
      <point x="559" y="856"/>
      <point x="558" y="853" type="curve"/>
      <point x="544" y="794"/>
      <point x="530" y="734"/>
      <point x="516" y="675" type="curve"/>
      <point x="508" y="652"/>
      <point x="505" y="654"/>
      <point x="498" y="675" type="curve"/>
      <point x="484" y="728"/>
      <point x="471" y="782"/>
      <point x="457" y="835" type="curve" smooth="yes"/>
      <point x="454" y="848"/>
      <point x="453" y="858"/>
      <point x="453" y="861" type="curve" smooth="yes"/>
      <point x="453" y="884"/>
      <point x="494" y="886"/>
      <point x="494" y="903" type="curve" smooth="yes"/>
      <point x="494" y="911"/>
      <point x="482" y="914"/>
      <point x="465" y="914" type="curve" smooth="yes"/>
      <point x="445" y="914"/>
      <point x="418" y="912"/>
      <point x="388" y="912" type="curve" smooth="yes"/>
      <point x="352" y="912"/>
      <point x="325" y="915"/>
      <point x="294" y="915" type="curve" smooth="yes"/>
      <point x="277" y="915"/>
      <point x="265" y="912"/>
      <point x="265" y="904" type="curve" smooth="yes"/>
      <point x="265" y="895"/>
      <point x="276" y="889"/>
      <point x="298" y="882" type="curve" smooth="yes"/>
      <point x="332" y="871"/>
      <point x="381" y="845"/>
      <point x="393" y="800" type="curve"/>
      <point x="450" y="581" type="line"/>
      <point x="455" y="564"/>
      <point x="458" y="554"/>
      <point x="458" y="543" type="curve" smooth="yes"/>
      <point x="458" y="536"/>
      <point x="456" y="527"/>
      <point x="452" y="514" type="curve" smooth="yes"/>
      <point x="365" y="193" type="line" smooth="yes"/>
      <point x="362" y="182"/>
      <point x="354" y="178"/>
      <point x="350" y="194" type="curve" smooth="yes"/>
      <point x="287" y="447"/>
      <point x="253" y="552"/>
      <point x="197" y="800" type="curve"/>
      <point x="192" y="812"/>
      <point x="187" y="829"/>
      <point x="187" y="850" type="curve" smooth="yes"/>
      <point x="187" y="865"/>
      <point x="191" y="879"/>
      <point x="207" y="883" type="curve" smooth="yes"/>
      <point x="230" y="889"/>
      <point x="240" y="894"/>
      <point x="240" y="903" type="curve" smooth="yes"/>
      <point x="240" y="911"/>
      <point x="228" y="914"/>
      <point x="211" y="914" type="curve" smooth="yes"/>
      <point x="191" y="914"/>
      <point x="155" y="912"/>
      <point x="118" y="912" type="curve" smooth="yes"/>
      <point x="84" y="912"/>
      <point x="60" y="915"/>
      <point x="29" y="915" type="curve" smooth="yes"/>
      <point x="12" y="915"/>
      <point x="0" y="912"/>
      <point x="0" y="904" type="curve" smooth="yes"/>
      <point x="0" y="895"/>
      <point x="11" y="889"/>
      <point x="33" y="882" type="curve" smooth="yes"/>
      <point x="67" y="871"/>
      <point x="96" y="850"/>
      <point x="110" y="798" type="curve" smooth="yes"/>
      <point x="321" y="12" type="line"/>
      <point x="325" y="-1"/>
      <point x="332" y="-16"/>
    </contour>
  </outline>
</glyph>
<glyph name="Y" format="1">
  <advance width="578"/>
  <unicode hex="0059"/>
  <outline>
    <contour>
      <point x="236" y="-5"/>
      <point x="260" y="0"/>
      <point x="310" y="0" type="curve" smooth="yes"/>
      <point x="356" y="0"/>
      <point x="373" y="-5"/>
      <point x="427" y="-5" type="curve" smooth="yes"/>
      <point x="444" y="-5"/>
      <point x="456" y="-2"/>
      <point x="456" y="6" type="curve" smooth="yes"/>
      <point x="456" y="15"/>
      <point x="446" y="20"/>
      <point x="423" y="24" type="curve" smooth="yes"/>
      <point x="373" y="33"/>
      <point x="344" y="63"/>
      <point x="344" y="108" type="curve" smooth="yes"/>
      <point x="344" y="380" type="line" smooth="yes"/>
      <point x="344" y="435"/>
      <point x="343" y="447"/>
      <point x="369" y="508" type="curve" smooth="yes"/>
      <point x="414" y="614"/>
      <point x="430" y="670"/>
      <point x="484" y="788" type="curve" smooth="yes"/>
      <point x="520" y="843"/>
      <point x="533" y="869"/>
      <point x="568" y="879" type="curve" smooth="yes"/>
      <point x="596" y="887"/>
      <point x="621" y="895"/>
      <point x="621" y="904" type="curve" smooth="yes"/>
      <point x="621" y="912"/>
      <point x="609" y="915"/>
      <point x="592" y="915" type="curve" smooth="yes"/>
      <point x="569" y="915"/>
      <point x="529" y="912"/>
      <point x="488" y="912" type="curve" smooth="yes"/>
      <point x="459" y="912"/>
      <point x="443" y="913"/>
      <point x="413" y="913" type="curve" smooth="yes"/>
      <point x="396" y="913"/>
      <point x="384" y="910"/>
      <point x="384" y="902" type="curve" smooth="yes"/>
      <point x="384" y="893"/>
      <point x="403" y="884"/>
      <point x="417" y="882" type="curve" smooth="yes"/>
      <point x="436" y="879"/>
      <point x="458" y="872"/>
      <point x="458" y="847" type="curve" smooth="yes"/>
      <point x="458" y="835"/>
      <point x="455" y="806"/>
      <point x="439" y="768" type="curve" smooth="yes"/>
      <point x="408" y="683"/>
      <point x="377" y="599"/>
      <point x="346" y="514" type="curve" smooth="yes"/>
      <point x="337" y="491"/>
      <point x="331" y="475"/>
      <point x="323" y="475" type="curve" smooth="yes"/>
      <point x="317" y="475"/>
      <point x="304" y="485"/>
      <point x="295" y="513" type="curve" smooth="yes"/>
      <point x="193" y="816" type="line" smooth="yes"/>
      <point x="187" y="833"/>
      <point x="185" y="848"/>
      <point x="185" y="856" type="curve" smooth="yes"/>
      <point x="185" y="871"/>
      <point x="203" y="878"/>
      <point x="222" y="883" type="curve" smooth="yes"/>
      <point x="244" y="889"/>
      <point x="255" y="894"/>
      <point x="255" y="903" type="curve" smooth="yes"/>
      <point x="255" y="911"/>
      <point x="243" y="914"/>
      <point x="226" y="914" type="curve" smooth="yes"/>
      <point x="205" y="914"/>
      <point x="177" y="912"/>
      <point x="146" y="912" type="curve" smooth="yes"/>
      <point x="100" y="912"/>
      <point x="59" y="915"/>
      <point x="29" y="915" type="curve" smooth="yes"/>
      <point x="12" y="915"/>
      <point x="0" y="912"/>
      <point x="0" y="904" type="curve" smooth="yes"/>
      <point x="0" y="895"/>
      <point x="11" y="889"/>
      <point x="33" y="882" type="curve" smooth="yes"/>
      <point x="67" y="871"/>
      <point x="111" y="812"/>
      <point x="122" y="784" type="curve" smooth="yes"/>
      <point x="239" y="481" type="line"/>
      <point x="244" y="468"/>
      <point x="264" y="414"/>
      <point x="264" y="376" type="curve" smooth="yes"/>
      <point x="264" y="108" type="line" smooth="yes"/>
      <point x="264" y="60"/>
      <point x="236" y="33"/>
      <point x="186" y="24" type="curve" smooth="yes"/>
      <point x="163" y="20"/>
      <point x="153" y="15"/>
      <point x="153" y="6" type="curve" smooth="yes"/>
      <point x="153" y="-2"/>
      <point x="165" y="-5"/>
      <point x="182" y="-5" type="curve" smooth="yes"/>
    </contour>
  </outline>
</glyph>
<glyph name="backslash" format="1">
  <advance width="399"/>
  <unicode hex="005C"/>
  <outline>
    <contour>
      <point x="362" y="-62" type="curve" smooth="yes"/>
      <point x="375" y="-62"/>
      <point x="381" y="-55"/>
      <point x="378" y="-47" type="curve" smooth="yes"/>
      <point x="81" y="913" type="line" smooth="yes"/>
      <point x="76" y="929"/>
      <point x="59" y="930"/>
      <point x="42" y="930" type="curve" smooth="yes"/>
      <point x="29" y="930"/>
      <point x="26" y="922"/>
      <point x="29" y="913" type="curve" smooth="yes"/>
      <point x="326" y="-47" type="line" smooth="yes"/>
      <point x="330" y="-61"/>
      <point x="347" y="-62"/>
    </contour>
  </outline>
</glyph>
<glyph name="asciicircum" format="1">
  <advance width="500"/>
  <unicode hex="005E"/>
  <outline>
    <contour>
      <point x="57" y="428" type="curve" smooth="yes"/>
      <point x="69" y="428"/>
      <point x="88" y="437"/>
      <point x="96" y="453" type="curve" smooth="yes"/>
      <point x="244" y="749" type="line"/>
      <point x="248" y="757"/>
      <point x="249" y="757"/>
      <point x="254" y="749" type="curve"/>
      <point x="407" y="452" type="line" smooth="yes"/>
      <point x="413" y="440"/>
      <point x="428" y="428"/>
      <point x="443" y="428" type="curve" smooth="yes"/>
      <point x="452" y="428"/>
      <point x="454" y="445"/>
      <point x="449" y="456" type="curve"/>
      <point x="251" y="858" type="line"/>
      <point x="248" y="858" type="line"/>
      <point x="51" y="456" type="line"/>
      <point x="49" y="452"/>
      <point x="48" y="447"/>
      <point x="48" y="443" type="curve" smooth="yes"/>
      <point x="48" y="435"/>
      <point x="52" y="428"/>
    </contour>
  </outline>
</glyph>
<glyph name="grave" format="1">
  <advance width="201"/>
  <unicode hex="0060"/>
  <outline>
    <contour>
      <point x="176" y="664"/>
      <point x="179" y="666"/>
      <point x="179" y="673" type="curve" smooth="yes"/>
      <point x="179" y="677"/>
      <point x="178" y="683"/>
      <point x="175" y="691" type="curve" smooth="yes"/>
      <point x="161" y="728"/>
      <point x="114" y="811"/>
      <point x="98" y="838" type="curve" smooth="yes"/>
      <point x="92" y="848"/>
      <point x="81" y="856"/>
      <point x="71" y="856" type="curve" smooth="yes"/>
      <point x="46" y="856"/>
      <point x="22" y="849"/>
      <point x="22" y="835" type="curve" smooth="yes"/>
      <point x="22" y="827"/>
      <point x="26" y="823"/>
      <point x="32" y="814" type="curve" smooth="yes"/>
      <point x="56" y="779"/>
      <point x="114" y="711"/>
      <point x="140" y="685" type="curve" smooth="yes"/>
      <point x="154" y="671"/>
      <point x="164" y="664"/>
      <point x="171" y="664" type="curve" smooth="yes"/>
    </contour>
  </outline>
</glyph>
<glyph name="a" format="1">
  <advance width="399"/>
  <unicode hex="0061"/>
  <outline>
    <contour>
      <point x="160" y="-14"/>
      <point x="198" y="2"/>
      <point x="242" y="38" type="curve"/>
      <point x="245" y="38" type="line"/>
      <point x="263" y="3"/>
      <point x="287" y="-14"/>
      <point x="318" y="-14" type="curve" smooth="yes"/>
      <point x="339" y="-14"/>
      <point x="366" y="0"/>
      <point x="387" y="21" type="curve" smooth="yes"/>
      <point x="393" y="27"/>
      <point x="398" y="37"/>
      <point x="398" y="43" type="curve" smooth="yes"/>
      <point x="398" y="49"/>
      <point x="393" y="54"/>
      <point x="387" y="54" type="curve" smooth="yes"/>
      <point x="385" y="54"/>
      <point x="383" y="53"/>
      <point x="379" y="49" type="curve" smooth="yes"/>
      <point x="370" y="41"/>
      <point x="359" y="38"/>
      <point x="342" y="38" type="curve" smooth="yes"/>
      <point x="320" y="38"/>
      <point x="306" y="57"/>
      <point x="306" y="85" type="curve" smooth="yes"/>
      <point x="311" y="492" type="line" smooth="yes"/>
      <point x="312" y="543"/>
      <point x="277" y="581"/>
      <point x="229" y="581" type="curve" smooth="yes"/>
      <point x="189" y="581"/>
      <point x="113" y="533"/>
      <point x="76" y="493" type="curve" smooth="yes"/>
      <point x="54" y="469"/>
      <point x="40" y="442"/>
      <point x="40" y="421" type="curve" smooth="yes"/>
      <point x="40" y="416"/>
      <point x="44" y="412"/>
      <point x="51" y="412" type="curve" smooth="yes"/>
      <point x="71" y="412"/>
      <point x="117" y="437"/>
      <point x="117" y="447" type="curve" smooth="yes"/>
      <point x="117" y="452"/>
      <point x="116" y="460"/>
      <point x="116" y="465" type="curve" smooth="yes"/>
      <point x="116" y="477"/>
      <point x="117" y="486"/>
      <point x="124" y="495" type="curve" smooth="yes"/>
      <point x="135" y="510"/>
      <point x="161" y="532"/>
      <point x="181" y="532" type="curve" smooth="yes"/>
      <point x="219" y="532"/>
      <point x="241" y="503"/>
      <point x="240" y="468" type="curve" smooth="yes"/>
      <point x="238" y="334" type="line" smooth="yes"/>
      <point x="237" y="297"/>
      <point x="236" y="294"/>
      <point x="210" y="279" type="curve" smooth="yes"/>
      <point x="108" y="221" type="line" smooth="yes"/>
      <point x="59" y="193"/>
      <point x="37" y="164"/>
      <point x="37" y="105" type="curve" smooth="yes"/>
      <point x="37" y="54"/>
      <point x="81" y="-14"/>
      <point x="117" y="-14" type="curve" smooth="yes"/>
    </contour>
    <contour>
      <point x="140" y="34"/>
      <point x="115" y="62"/>
      <point x="115" y="118" type="curve" smooth="yes"/>
      <point x="115" y="166"/>
      <point x="136" y="201"/>
      <point x="209" y="239" type="curve" smooth="yes"/>
      <point x="220" y="245"/>
      <point x="226" y="247"/>
      <point x="229" y="247" type="curve" smooth="yes"/>
      <point x="237" y="247"/>
      <point x="239" y="238"/>
      <point x="238" y="214" type="curve" smooth="yes"/>
      <point x="236" y="137" type="line" smooth="yes"/>
      <point x="235" y="97"/>
      <point x="230" y="83"/>
      <point x="223" y="72" type="curve" smooth="yes"/>
      <point x="208" y="48"/>
      <point x="190" y="34"/>
      <point x="164" y="34" type="curve" smooth="yes"/>
    </contour>
  </outline>
</glyph>
<glyph name="b" format="1">
  <advance width="515"/>
  <unicode hex="0062"/>
  <outline>
    <contour>
      <point x="259" y="-14" type="curve" smooth="yes"/>
      <point x="390" y="-14"/>
      <point x="480" y="117"/>
      <point x="480" y="307" type="curve" smooth="yes"/>
      <point x="480" y="461"/>
      <point x="401" y="581"/>
      <point x="300" y="581" type="curve" smooth="yes"/>
      <point x="256" y="581"/>
      <point x="195" y="557"/>
      <point x="154" y="511" type="curve"/>
      <point x="147" y="512"/>
      <point x="145" y="521"/>
      <point x="145" y="557" type="curve" smooth="yes"/>
      <point x="145" y="876" type="line" smooth="yes"/>
      <point x="145" y="932"/>
      <point x="148" y="976"/>
      <point x="148" y="981" type="curve" smooth="yes"/>
      <point x="148" y="985"/>
      <point x="145" y="988"/>
      <point x="142" y="988" type="curve" smooth="yes"/>
      <point x="140" y="988"/>
      <point x="137" y="987"/>
      <point x="133" y="985" type="curve" smooth="yes"/>
      <point x="120" y="979"/>
      <point x="54" y="952"/>
      <point x="28" y="947" type="curve" smooth="yes"/>
      <point x="23" y="946"/>
      <point x="16" y="944"/>
      <point x="16" y="937" type="curve" smooth="yes"/>
      <point x="16" y="929"/>
      <point x="23" y="925"/>
      <point x="29" y="922" type="curve" smooth="yes"/>
      <point x="55" y="909"/>
      <point x="75" y="884"/>
      <point x="75" y="849" type="curve" smooth="yes"/>
      <point x="75" y="81" type="line" smooth="yes"/>
      <point x="75" y="56"/>
      <point x="68" y="21"/>
      <point x="68" y="9" type="curve" smooth="yes"/>
      <point x="68" y="2"/>
      <point x="76" y="-3"/>
      <point x="82" y="-3" type="curve" smooth="yes"/>
      <point x="85" y="-3"/>
      <point x="88" y="-1"/>
      <point x="91" y="2" type="curve" smooth="yes"/>
      <point x="97" y="8"/>
      <point x="105" y="15"/>
      <point x="113" y="15" type="curve" smooth="yes"/>
      <point x="120" y="15"/>
      <point x="144" y="7"/>
      <point x="173" y="-1" type="curve" smooth="yes"/>
      <point x="199" y="-8"/>
      <point x="230" y="-14"/>
    </contour>
    <contour>
      <point x="282" y="17" type="curve" smooth="yes"/>
      <point x="204" y="17"/>
      <point x="145" y="60"/>
      <point x="145" y="160" type="curve" smooth="yes"/>
      <point x="145" y="471" type="line"/>
      <point x="174" y="510"/>
      <point x="214" y="538"/>
      <point x="267" y="538" type="curve" smooth="yes"/>
      <point x="362" y="538"/>
      <point x="405" y="391"/>
      <point x="405" y="278" type="curve" smooth="yes"/>
      <point x="405" y="130"/>
      <point x="358" y="17"/>
    </contour>
  </outline>
</glyph>
<glyph name="d" format="1">
  <advance width="506"/>
  <unicode hex="0064"/>
  <outline>
    <contour>
      <point x="357" y="-19" type="curve" smooth="yes"/>
      <point x="361" y="-19"/>
      <point x="362" y="-19"/>
      <point x="373" y="-13" type="curve" smooth="yes"/>
      <point x="420" y="7"/>
      <point x="453" y="16"/>
      <point x="490" y="21" type="curve" smooth="yes"/>
      <point x="497" y="21"/>
      <point x="504" y="30"/>
      <point x="504" y="39" type="curve" smooth="yes"/>
      <point x="504" y="47"/>
      <point x="499" y="49"/>
      <point x="486" y="48" type="curve" smooth="yes"/>
      <point x="469" y="46"/>
      <point x="450" y="45"/>
      <point x="443" y="45" type="curve" smooth="yes"/>
      <point x="428" y="45"/>
      <point x="422" y="64"/>
      <point x="422" y="110" type="curve" smooth="yes"/>
      <point x="422" y="845" type="line" smooth="yes"/>
      <point x="422" y="935"/>
      <point x="429" y="969"/>
      <point x="429" y="981" type="curve"/>
      <point x="428" y="985"/>
      <point x="426" y="987"/>
      <point x="422" y="987" type="curve" smooth="yes"/>
      <point x="419" y="987"/>
      <point x="414" y="986"/>
      <point x="409" y="984" type="curve" smooth="yes"/>
      <point x="390" y="976"/>
      <point x="359" y="966"/>
      <point x="301" y="947" type="curve" smooth="yes"/>
      <point x="295" y="945"/>
      <point x="293" y="940"/>
      <point x="293" y="935" type="curve" smooth="yes"/>
      <point x="293" y="929"/>
      <point x="296" y="923"/>
      <point x="302" y="922" type="curve" smooth="yes"/>
      <point x="334" y="917"/>
      <point x="352" y="903"/>
      <point x="352" y="849" type="curve" smooth="yes"/>
      <point x="352" y="595" type="line" smooth="yes"/>
      <point x="352" y="570"/>
      <point x="348" y="562"/>
      <point x="345" y="562" type="curve" smooth="yes"/>
      <point x="342" y="562"/>
      <point x="338" y="563"/>
      <point x="332" y="566" type="curve" smooth="yes"/>
      <point x="317" y="573"/>
      <point x="287" y="581"/>
      <point x="260" y="581" type="curve" smooth="yes"/>
      <point x="120" y="581"/>
      <point x="35" y="431"/>
      <point x="35" y="270" type="curve" smooth="yes"/>
      <point x="35" y="129"/>
      <point x="106" y="-14"/>
      <point x="220" y="-14" type="curve" smooth="yes"/>
      <point x="286" y="-14"/>
      <point x="331" y="42"/>
      <point x="351" y="85" type="curve"/>
      <point x="351" y="51" type="line" smooth="yes"/>
      <point x="351" y="34"/>
      <point x="346" y="4"/>
      <point x="346" y="-9" type="curve" smooth="yes"/>
      <point x="346" y="-12"/>
      <point x="354" y="-19"/>
    </contour>
    <contour>
      <point x="256" y="37" type="curve" smooth="yes"/>
      <point x="212" y="37"/>
      <point x="106" y="73"/>
      <point x="106" y="299" type="curve" smooth="yes"/>
      <point x="106" y="497"/>
      <point x="183" y="546"/>
      <point x="229" y="546" type="curve" smooth="yes"/>
      <point x="314" y="546"/>
      <point x="352" y="493"/>
      <point x="352" y="398" type="curve" smooth="yes"/>
      <point x="351" y="110" type="line"/>
      <point x="326" y="68"/>
      <point x="291" y="37"/>
    </contour>
  </outline>
</glyph>
<glyph name="e" format="1">
  <advance width="390"/>
  <unicode hex="0065"/>
  <outline>
    <contour>
      <point x="213" y="-15" type="curve" smooth="yes"/>
      <point x="266" y="-15"/>
      <point x="317" y="13"/>
      <point x="347" y="60" type="curve" smooth="yes"/>
      <point x="359" y="78"/>
      <point x="365" y="95"/>
      <point x="365" y="110" type="curve" smooth="yes"/>
      <point x="365" y="118"/>
      <point x="362" y="123"/>
      <point x="357" y="123" type="curve" smooth="yes"/>
      <point x="353" y="123"/>
      <point x="351" y="122"/>
      <point x="346" y="113" type="curve" smooth="yes"/>
      <point x="321" y="70"/>
      <point x="288" y="46"/>
      <point x="248" y="46" type="curve" smooth="yes"/>
      <point x="163" y="46"/>
      <point x="94" y="163"/>
      <point x="94" y="307" type="curve" smooth="yes"/>
      <point x="94" y="358"/>
      <point x="100" y="370"/>
      <point x="119" y="370" type="curve" smooth="yes"/>
      <point x="330" y="370" type="line" smooth="yes"/>
      <point x="351" y="370"/>
      <point x="360" y="384"/>
      <point x="360" y="412" type="curve" smooth="yes"/>
      <point x="360" y="511"/>
      <point x="303" y="581"/>
      <point x="223" y="581" type="curve" smooth="yes"/>
      <point x="118" y="581"/>
      <point x="30" y="448"/>
      <point x="30" y="288" type="curve" smooth="yes"/>
      <point x="30" y="106"/>
      <point x="103" y="-15"/>
    </contour>
    <contour>
      <point x="121" y="401" type="line" smooth="yes"/>
      <point x="113" y="401"/>
      <point x="109" y="405"/>
      <point x="109" y="417" type="curve" smooth="yes"/>
      <point x="109" y="486"/>
      <point x="160" y="552"/>
      <point x="208" y="552" type="curve" smooth="yes"/>
      <point x="255" y="552"/>
      <point x="294" y="509"/>
      <point x="294" y="442" type="curve" smooth="yes"/>
      <point x="294" y="422"/>
      <point x="292" y="410"/>
      <point x="286" y="409" type="curve" smooth="yes"/>
      <point x="264" y="402"/>
      <point x="244" y="401"/>
      <point x="212" y="401" type="curve" smooth="yes"/>
    </contour>
  </outline>
</glyph>
<glyph name="f" format="1">
  <advance width="318"/>
  <unicode hex="0066"/>
  <outline>
    <contour>
      <point x="44" y="-3" type="curve" smooth="yes"/>
      <point x="84" y="-3"/>
      <point x="92" y="2"/>
      <point x="127" y="2" type="curve" smooth="yes"/>
      <point x="162" y="2"/>
      <point x="189" y="-3"/>
      <point x="229" y="-3" type="curve" smooth="yes"/>
      <point x="242" y="-3"/>
      <point x="249" y="0"/>
      <point x="249" y="8" type="curve" smooth="yes"/>
      <point x="249" y="18"/>
      <point x="240" y="22"/>
      <point x="226" y="24" type="curve" smooth="yes"/>
      <point x="172" y="30"/>
      <point x="160" y="41"/>
      <point x="160" y="68" type="curve" smooth="yes"/>
      <point x="160" y="506" type="line" smooth="yes"/>
      <point x="160" y="514"/>
      <point x="163" y="519"/>
      <point x="179" y="519" type="curve" smooth="yes"/>
      <point x="294" y="519" type="line" smooth="yes"/>
      <point x="297" y="519"/>
      <point x="301" y="522"/>
      <point x="303" y="527" type="curve" smooth="yes"/>
      <point x="306" y="535"/>
      <point x="309" y="547"/>
      <point x="309" y="556" type="curve" smooth="yes"/>
      <point x="309" y="562"/>
      <point x="303" y="567"/>
      <point x="296" y="567" type="curve" smooth="yes"/>
      <point x="165" y="567" type="line" smooth="yes"/>
      <point x="159" y="567"/>
      <point x="160" y="603"/>
      <point x="160" y="605" type="curve" smooth="yes"/>
      <point x="160" y="780" type="line" smooth="yes"/>
      <point x="160" y="893"/>
      <point x="205" y="947"/>
      <point x="268" y="947" type="curve" smooth="yes"/>
      <point x="312" y="947"/>
      <point x="335" y="928"/>
      <point x="352" y="911" type="curve" smooth="yes"/>
      <point x="365" y="898"/>
      <point x="374" y="888"/>
      <point x="386" y="888" type="curve" smooth="yes"/>
      <point x="404" y="888"/>
      <point x="420" y="901"/>
      <point x="420" y="928" type="curve" smooth="yes"/>
      <point x="420" y="963"/>
      <point x="384" y="988"/>
      <point x="310" y="988" type="curve" smooth="yes"/>
      <point x="225" y="988"/>
      <point x="90" y="922"/>
      <point x="90" y="701" type="curve" smooth="yes"/>
      <point x="90" y="573" type="line"/>
      <point x="70" y="563"/>
      <point x="55" y="555"/>
      <point x="31" y="543" type="curve" smooth="yes"/>
      <point x="29" y="542"/>
      <point x="24" y="540"/>
      <point x="24" y="537" type="curve" smooth="yes"/>
      <point x="24" y="530"/>
      <point x="34" y="520"/>
      <point x="38" y="519" type="curve"/>
      <point x="59" y="517"/>
      <point x="77" y="517"/>
      <point x="90" y="517" type="curve"/>
      <point x="90" y="68" type="line" smooth="yes"/>
      <point x="90" y="41"/>
      <point x="78" y="31"/>
      <point x="47" y="24" type="curve" smooth="yes"/>
      <point x="33" y="21"/>
      <point x="24" y="18"/>
      <point x="24" y="8" type="curve" smooth="yes"/>
      <point x="24" y="0"/>
      <point x="31" y="-3"/>
    </contour>
  </outline>
</glyph>
<glyph name="g" format="1">
  <advance width="435"/>
  <unicode hex="0067"/>
  <outline>
    <contour>
      <point x="303" y="-405"/>
      <point x="418" y="-265"/>
      <point x="418" y="-135" type="curve" smooth="yes"/>
      <point x="418" y="-74"/>
      <point x="380" y="-24"/>
      <point x="236" y="-17" type="curve" smooth="yes"/>
      <point x="151" y="-13"/>
      <point x="106" y="12"/>
      <point x="106" y="51" type="curve" smooth="yes"/>
      <point x="106" y="71"/>
      <point x="129" y="100"/>
      <point x="158" y="115" type="curve"/>
      <point x="124" y="137" type="line"/>
      <point x="113" y="114"/>
      <point x="109" y="110"/>
      <point x="63" y="66" type="curve" smooth="yes"/>
      <point x="47" y="49"/>
      <point x="40" y="35"/>
      <point x="40" y="19" type="curve" smooth="yes"/>
      <point x="40" y="-39"/>
      <point x="82" y="-66"/>
      <point x="207" y="-79" type="curve" smooth="yes"/>
      <point x="313" y="-88"/>
      <point x="357" y="-115"/>
      <point x="357" y="-175" type="curve" smooth="yes"/>
      <point x="357" y="-238"/>
      <point x="337" y="-294"/>
      <point x="304" y="-328" type="curve" smooth="yes"/>
      <point x="280" y="-353"/>
      <point x="249" y="-365"/>
      <point x="209" y="-365" type="curve" smooth="yes"/>
      <point x="140" y="-365"/>
      <point x="86" y="-308"/>
      <point x="86" y="-238" type="curve" smooth="yes"/>
      <point x="86" y="-165"/>
      <point x="108" y="-122"/>
      <point x="172" y="-66" type="curve"/>
      <point x="140" y="-61" type="line"/>
      <point x="97" y="-104"/>
      <point x="63" y="-137"/>
      <point x="44" y="-157" type="curve" smooth="yes"/>
      <point x="21" y="-180"/>
      <point x="11" y="-208"/>
      <point x="11" y="-253" type="curve" smooth="yes"/>
      <point x="11" y="-347"/>
      <point x="81" y="-405"/>
      <point x="195" y="-405" type="curve" smooth="yes"/>
    </contour>
    <contour>
      <point x="149" y="141"/>
      <point x="111" y="229"/>
      <point x="111" y="358" type="curve" smooth="yes"/>
      <point x="111" y="461"/>
      <point x="153" y="554"/>
      <point x="200" y="554" type="curve" smooth="yes"/>
      <point x="260" y="554"/>
      <point x="295" y="505"/>
      <point x="295" y="367" type="curve" smooth="yes"/>
      <point x="295" y="231"/>
      <point x="267" y="141"/>
      <point x="207" y="141" type="curve" smooth="yes"/>
    </contour>
    <contour>
      <point x="301" y="106"/>
      <point x="360" y="233"/>
      <point x="360" y="396" type="curve" smooth="yes"/>
      <point x="360" y="464"/>
      <point x="363" y="483"/>
      <point x="366" y="492" type="curve" smooth="yes"/>
      <point x="368" y="497"/>
      <point x="378" y="499"/>
      <point x="396" y="499" type="curve" smooth="yes"/>
      <point x="423" y="499" type="line"/>
      <point x="425" y="499"/>
      <point x="428" y="501"/>
      <point x="431" y="505" type="curve" smooth="yes"/>
      <point x="437" y="510"/>
      <point x="441" y="518"/>
      <point x="441" y="523" type="curve" smooth="yes"/>
      <point x="441" y="532"/>
      <point x="435" y="538"/>
      <point x="428" y="538" type="curve" smooth="yes"/>
      <point x="418" y="538"/>
      <point x="389" y="534"/>
      <point x="373" y="534" type="curve" smooth="yes"/>
      <point x="353" y="534"/>
      <point x="338" y="535"/>
      <point x="306" y="549" type="curve" smooth="yes"/>
      <point x="278" y="561"/>
      <point x="252" y="581"/>
      <point x="213" y="581" type="curve" smooth="yes"/>
      <point x="122" y="581"/>
      <point x="39" y="481"/>
      <point x="39" y="339" type="curve" smooth="yes"/>
      <point x="39" y="207"/>
      <point x="111" y="106"/>
      <point x="201" y="106" type="curve" smooth="yes"/>
    </contour>
  </outline>
</glyph>
<glyph name="h" format="1">
  <advance width="515"/>
  <unicode hex="0068"/>
  <outline>
    <contour>
      <point x="39" y="-3" type="curve" smooth="yes"/>
      <point x="79" y="-3"/>
      <point x="85" y="2"/>
      <point x="120" y="2" type="curve" smooth="yes"/>
      <point x="155" y="2"/>
      <point x="156" y="-3"/>
      <point x="196" y="-3" type="curve" smooth="yes"/>
      <point x="211" y="-3"/>
      <point x="216" y="0"/>
      <point x="216" y="8" type="curve" smooth="yes"/>
      <point x="216" y="16"/>
      <point x="208" y="20"/>
      <point x="194" y="24" type="curve" smooth="yes"/>
      <point x="174" y="30"/>
      <point x="155" y="38"/>
      <point x="155" y="65" type="curve" smooth="yes"/>
      <point x="155" y="435" type="line" smooth="yes"/>
      <point x="155" y="476"/>
      <point x="161" y="490"/>
      <point x="182" y="507" type="curve" smooth="yes"/>
      <point x="201" y="522"/>
      <point x="240" y="529"/>
      <point x="265" y="529" type="curve" smooth="yes"/>
      <point x="308" y="529"/>
      <point x="358" y="489"/>
      <point x="358" y="439" type="curve" smooth="yes"/>
      <point x="358" y="68" type="line" smooth="yes"/>
      <point x="358" y="41"/>
      <point x="339" y="31"/>
      <point x="319" y="24" type="curve" smooth="yes"/>
      <point x="304" y="19"/>
      <point x="296" y="17"/>
      <point x="296" y="8" type="curve" smooth="yes"/>
      <point x="296" y="0"/>
      <point x="302" y="-3"/>
      <point x="316" y="-3" type="curve" smooth="yes"/>
      <point x="356" y="-3"/>
      <point x="359" y="2"/>
      <point x="394" y="2" type="curve" smooth="yes"/>
      <point x="429" y="2"/>
      <point x="432" y="-3"/>
      <point x="472" y="-3" type="curve" smooth="yes"/>
      <point x="486" y="-3"/>
      <point x="492" y="0"/>
      <point x="492" y="8" type="curve" smooth="yes"/>
      <point x="492" y="16"/>
      <point x="483" y="20"/>
      <point x="469" y="24" type="curve" smooth="yes"/>
      <point x="449" y="30"/>
      <point x="428" y="41"/>
      <point x="428" y="68" type="curve" smooth="yes"/>
      <point x="428" y="445" type="line" smooth="yes"/>
      <point x="428" y="523"/>
      <point x="379" y="581"/>
      <point x="314" y="581" type="curve" smooth="yes"/>
      <point x="240" y="581"/>
      <point x="172" y="525"/>
      <point x="148" y="508" type="curve"/>
      <point x="168" y="507" type="line"/>
      <point x="158" y="524"/>
      <point x="155" y="526"/>
      <point x="155" y="555" type="curve" smooth="yes"/>
      <point x="156" y="845" type="line" smooth="yes"/>
      <point x="156" y="952"/>
      <point x="165" y="969"/>
      <point x="165" y="981" type="curve" smooth="yes"/>
      <point x="165" y="985"/>
      <point x="162" y="988"/>
      <point x="158" y="988" type="curve" smooth="yes"/>
      <point x="156" y="988"/>
      <point x="154" y="987"/>
      <point x="152" y="986" type="curve" smooth="yes"/>
      <point x="120" y="970"/>
      <point x="69" y="956"/>
      <point x="41" y="947" type="curve" smooth="yes"/>
      <point x="35" y="945"/>
      <point x="33" y="941"/>
      <point x="33" y="935" type="curve" smooth="yes"/>
      <point x="33" y="927"/>
      <point x="36" y="922"/>
      <point x="42" y="921" type="curve" smooth="yes"/>
      <point x="76" y="915"/>
      <point x="86" y="885"/>
      <point x="86" y="849" type="curve" smooth="yes"/>
      <point x="85" y="65" type="line" smooth="yes"/>
      <point x="85" y="38"/>
      <point x="62" y="30"/>
      <point x="42" y="24" type="curve" smooth="yes"/>
      <point x="25" y="19"/>
      <point x="19" y="16"/>
      <point x="19" y="8" type="curve" smooth="yes"/>
      <point x="19" y="0"/>
      <point x="27" y="-3"/>
    </contour>
  </outline>
</glyph>
<glyph name="i" format="1">
  <advance width="245"/>
  <unicode hex="0069"/>
  <outline>
    <contour>
      <point x="44" y="-3" type="curve" smooth="yes"/>
      <point x="83" y="-3"/>
      <point x="90" y="2"/>
      <point x="125" y="2" type="curve" smooth="yes"/>
      <point x="160" y="2"/>
      <point x="168" y="-3"/>
      <point x="206" y="-3" type="curve" smooth="yes"/>
      <point x="219" y="-3"/>
      <point x="226" y="0"/>
      <point x="226" y="8" type="curve" smooth="yes"/>
      <point x="226" y="18"/>
      <point x="214" y="21"/>
      <point x="203" y="24" type="curve" smooth="yes"/>
      <point x="176" y="31"/>
      <point x="160" y="39"/>
      <point x="160" y="62" type="curve" smooth="yes"/>
      <point x="160" y="441" type="line" smooth="yes"/>
      <point x="160" y="486"/>
      <point x="169" y="560"/>
      <point x="169" y="576" type="curve" smooth="yes"/>
      <point x="169" y="579"/>
      <point x="167" y="581"/>
      <point x="163" y="581" type="curve" smooth="yes"/>
      <point x="159" y="581"/>
      <point x="154" y="578"/>
      <point x="149" y="574" type="curve" smooth="yes"/>
      <point x="132" y="560"/>
      <point x="98" y="533"/>
      <point x="44" y="524" type="curve" smooth="yes"/>
      <point x="38" y="523"/>
      <point x="35" y="519"/>
      <point x="35" y="512" type="curve" smooth="yes"/>
      <point x="35" y="504"/>
      <point x="38" y="500"/>
      <point x="45" y="499" type="curve" smooth="yes"/>
      <point x="79" y="494"/>
      <point x="90" y="462"/>
      <point x="90" y="426" type="curve" smooth="yes"/>
      <point x="90" y="62" type="line" smooth="yes"/>
      <point x="90" y="38"/>
      <point x="75" y="31"/>
      <point x="47" y="24" type="curve" smooth="yes"/>
      <point x="36" y="21"/>
      <point x="24" y="18"/>
      <point x="24" y="8" type="curve" smooth="yes"/>
      <point x="24" y="0"/>
      <point x="32" y="-3"/>
    </contour>
    <contour>
      <point x="124" y="724" type="curve" smooth="yes"/>
      <point x="153" y="724"/>
      <point x="175" y="746"/>
      <point x="175" y="774" type="curve" smooth="yes"/>
      <point x="175" y="803"/>
      <point x="153" y="825"/>
      <point x="124" y="825" type="curve" smooth="yes"/>
      <point x="96" y="825"/>
      <point x="74" y="803"/>
      <point x="74" y="774" type="curve" smooth="yes"/>
      <point x="74" y="746"/>
      <point x="96" y="724"/>
    </contour>
  </outline>
</glyph>
<glyph name="j" format="1">
  <advance width="226"/>
  <unicode hex="006A"/>
  <outline>
    <contour>
      <point x="1" y="-396" type="curve" smooth="yes"/>
      <point x="41" y="-396"/>
      <point x="104" y="-329"/>
      <point x="129" y="-261" type="curve" smooth="yes"/>
      <point x="158" y="-181"/>
      <point x="159" y="-80"/>
      <point x="159" y="-18" type="curve" smooth="yes"/>
      <point x="159" y="422" type="line" smooth="yes"/>
      <point x="159" y="467"/>
      <point x="162" y="535"/>
      <point x="166" y="576" type="curve"/>
      <point x="166" y="579"/>
      <point x="163" y="581"/>
      <point x="159" y="581" type="curve" smooth="yes"/>
      <point x="157" y="581"/>
      <point x="153" y="578"/>
      <point x="146" y="574" type="curve" smooth="yes"/>
      <point x="126" y="563"/>
      <point x="92" y="536"/>
      <point x="42" y="524" type="curve" smooth="yes"/>
      <point x="38" y="523"/>
      <point x="35" y="517"/>
      <point x="35" y="512" type="curve" smooth="yes"/>
      <point x="35" y="506"/>
      <point x="38" y="500"/>
      <point x="43" y="499" type="curve" smooth="yes"/>
      <point x="77" y="492"/>
      <point x="89" y="462"/>
      <point x="89" y="426" type="curve" smooth="yes"/>
      <point x="89" y="-40" type="line" smooth="yes"/>
      <point x="89" y="-109"/>
      <point x="86" y="-245"/>
      <point x="57" y="-306" type="curve" smooth="yes"/>
      <point x="38" y="-346"/>
      <point x="15" y="-363"/>
      <point x="-9" y="-369" type="curve"/>
      <point x="-11" y="-370"/>
      <point x="-20" y="-378"/>
      <point x="-20" y="-386" type="curve" smooth="yes"/>
      <point x="-20" y="-393"/>
      <point x="-6" y="-396"/>
    </contour>
    <contour>
      <point x="116" y="725" type="curve" smooth="yes"/>
      <point x="145" y="725"/>
      <point x="167" y="747"/>
      <point x="167" y="775" type="curve" smooth="yes"/>
      <point x="167" y="804"/>
      <point x="145" y="826"/>
      <point x="116" y="826" type="curve" smooth="yes"/>
      <point x="88" y="826"/>
      <point x="66" y="804"/>
      <point x="66" y="775" type="curve" smooth="yes"/>
      <point x="66" y="747"/>
      <point x="88" y="725"/>
    </contour>
  </outline>
</glyph>
<glyph name="k" format="1">
  <advance width="469"/>
  <unicode hex="006B"/>
  <outline>
    <contour>
      <point x="42" y="-3" type="curve" smooth="yes"/>
      <point x="81" y="-3"/>
      <point x="85" y="2"/>
      <point x="120" y="2" type="curve" smooth="yes"/>
      <point x="155" y="2"/>
      <point x="151" y="-3"/>
      <point x="190" y="-3" type="curve" smooth="yes"/>
      <point x="195" y="-3"/>
      <point x="213" y="-2"/>
      <point x="213" y="8" type="curve" smooth="yes"/>
      <point x="213" y="18"/>
      <point x="201" y="20"/>
      <point x="190" y="24" type="curve" smooth="yes"/>
      <point x="170" y="30"/>
      <point x="155" y="38"/>
      <point x="155" y="65" type="curve" smooth="yes"/>
      <point x="154" y="88"/>
      <point x="154" y="112"/>
      <point x="154" y="135" type="curve" smooth="yes"/>
      <point x="154" y="158"/>
      <point x="154" y="271"/>
      <point x="155" y="290" type="curve"/>
      <point x="155" y="295"/>
      <point x="157" y="297"/>
      <point x="160" y="297" type="curve" smooth="yes"/>
      <point x="164" y="297"/>
      <point x="167" y="295"/>
      <point x="170" y="290" type="curve" smooth="yes"/>
      <point x="293" y="66" type="line" smooth="yes"/>
      <point x="296" y="60"/>
      <point x="298" y="52"/>
      <point x="298" y="48" type="curve" smooth="yes"/>
      <point x="298" y="36"/>
      <point x="286" y="30"/>
      <point x="271" y="25" type="curve" smooth="yes"/>
      <point x="262" y="22"/>
      <point x="254" y="17"/>
      <point x="254" y="9" type="curve" smooth="yes"/>
      <point x="254" y="4"/>
      <point x="258" y="0"/>
      <point x="272" y="0" type="curve" smooth="yes"/>
      <point x="340" y="0"/>
      <point x="407" y="-3"/>
      <point x="459" y="-3" type="curve" smooth="yes"/>
      <point x="471" y="-3"/>
      <point x="479" y="-1"/>
      <point x="479" y="8" type="curve" smooth="yes"/>
      <point x="479" y="18"/>
      <point x="463" y="21"/>
      <point x="449" y="26" type="curve" smooth="yes"/>
      <point x="429" y="33"/>
      <point x="396" y="51"/>
      <point x="374" y="72" type="curve" smooth="yes"/>
      <point x="353" y="91"/>
      <point x="264" y="259"/>
      <point x="221" y="328" type="curve" smooth="yes"/>
      <point x="220" y="330"/>
      <point x="218" y="333"/>
      <point x="218" y="335" type="curve" smooth="yes"/>
      <point x="218" y="338"/>
      <point x="220" y="341"/>
      <point x="224" y="345" type="curve" smooth="yes"/>
      <point x="274" y="408"/>
      <point x="340" y="498"/>
      <point x="356" y="515" type="curve" smooth="yes"/>
      <point x="372" y="531"/>
      <point x="399" y="544"/>
      <point x="424" y="551" type="curve" smooth="yes"/>
      <point x="438" y="555"/>
      <point x="449" y="561"/>
      <point x="449" y="569" type="curve" smooth="yes"/>
      <point x="449" y="575"/>
      <point x="444" y="579"/>
      <point x="435" y="579" type="curve" smooth="yes"/>
      <point x="416" y="579"/>
      <point x="375" y="567"/>
      <point x="344" y="567" type="curve" smooth="yes"/>
      <point x="295" y="567" type="line" smooth="yes"/>
      <point x="281" y="567"/>
      <point x="273" y="562"/>
      <point x="273" y="555" type="curve" smooth="yes"/>
      <point x="273" y="549"/>
      <point x="276" y="547"/>
      <point x="285" y="545" type="curve" smooth="yes"/>
      <point x="297" y="542"/>
      <point x="311" y="537"/>
      <point x="311" y="530" type="curve" smooth="yes"/>
      <point x="311" y="522"/>
      <point x="309" y="516"/>
      <point x="303" y="508" type="curve" smooth="yes"/>
      <point x="286" y="483"/>
      <point x="247" y="420"/>
      <point x="196" y="348" type="curve" smooth="yes"/>
      <point x="181" y="327"/>
      <point x="168" y="316"/>
      <point x="160" y="316" type="curve" smooth="yes"/>
      <point x="157" y="316"/>
      <point x="155" y="319"/>
      <point x="155" y="325" type="curve" smooth="yes"/>
      <point x="155" y="845" type="line" smooth="yes"/>
      <point x="155" y="930"/>
      <point x="164" y="965"/>
      <point x="164" y="979" type="curve" smooth="yes"/>
      <point x="164" y="985"/>
      <point x="162" y="988"/>
      <point x="158" y="988" type="curve" smooth="yes"/>
      <point x="155" y="988"/>
      <point x="153" y="987"/>
      <point x="149" y="985" type="curve" smooth="yes"/>
      <point x="120" y="970"/>
      <point x="90" y="957"/>
      <point x="39" y="947" type="curve" smooth="yes"/>
      <point x="34" y="946"/>
      <point x="31" y="941"/>
      <point x="31" y="935" type="curve" smooth="yes"/>
      <point x="31" y="929"/>
      <point x="34" y="923"/>
      <point x="40" y="922" type="curve" smooth="yes"/>
      <point x="73" y="916"/>
      <point x="85" y="896"/>
      <point x="85" y="849" type="curve" smooth="yes"/>
      <point x="85" y="65" type="line" smooth="yes"/>
      <point x="85" y="38"/>
      <point x="62" y="30"/>
      <point x="42" y="24" type="curve" smooth="yes"/>
      <point x="31" y="20"/>
      <point x="19" y="18"/>
      <point x="19" y="8" type="curve" smooth="yes"/>
      <point x="19" y="0"/>
      <point x="27" y="-3"/>
    </contour>
  </outline>
</glyph>
<glyph name="n" format="1">
  <advance width="528"/>
  <unicode hex="006E"/>
  <outline>
    <contour>
      <point x="44" y="-3" type="curve" smooth="yes"/>
      <point x="84" y="-3"/>
      <point x="90" y="2"/>
      <point x="125" y="2" type="curve" smooth="yes"/>
      <point x="160" y="2"/>
      <point x="166" y="-3"/>
      <point x="206" y="-3" type="curve" smooth="yes"/>
      <point x="219" y="-3"/>
      <point x="226" y="0"/>
      <point x="226" y="8" type="curve" smooth="yes"/>
      <point x="226" y="16"/>
      <point x="219" y="20"/>
      <point x="203" y="24" type="curve" smooth="yes"/>
      <point x="183" y="29"/>
      <point x="160" y="35"/>
      <point x="160" y="62" type="curve" smooth="yes"/>
      <point x="160" y="470" type="line" smooth="yes"/>
      <point x="160" y="478"/>
      <point x="163" y="488"/>
      <point x="168" y="493" type="curve" smooth="yes"/>
      <point x="194" y="519"/>
      <point x="231" y="533"/>
      <point x="279" y="533" type="curve" smooth="yes"/>
      <point x="333" y="533"/>
      <point x="369" y="497"/>
      <point x="369" y="439" type="curve" smooth="yes"/>
      <point x="369" y="62" type="line" smooth="yes"/>
      <point x="369" y="35"/>
      <point x="346" y="30"/>
      <point x="326" y="24" type="curve" smooth="yes"/>
      <point x="315" y="20"/>
      <point x="303" y="16"/>
      <point x="303" y="6" type="curve" smooth="yes"/>
      <point x="303" y="-2"/>
      <point x="316" y="-3"/>
      <point x="323" y="-3" type="curve" smooth="yes"/>
      <point x="363" y="-3"/>
      <point x="370" y="2"/>
      <point x="405" y="2" type="curve" smooth="yes"/>
      <point x="440" y="2"/>
      <point x="445" y="-3"/>
      <point x="485" y="-3" type="curve" smooth="yes"/>
      <point x="493" y="-3"/>
      <point x="505" y="-2"/>
      <point x="505" y="6" type="curve" smooth="yes"/>
      <point x="505" y="16"/>
      <point x="493" y="20"/>
      <point x="482" y="24" type="curve"/>
      <point x="462" y="30"/>
      <point x="439" y="35"/>
      <point x="439" y="62" type="curve" smooth="yes"/>
      <point x="439" y="442" type="line" smooth="yes"/>
      <point x="439" y="520"/>
      <point x="391" y="581"/>
      <point x="326" y="581" type="curve" smooth="yes"/>
      <point x="263" y="581"/>
      <point x="212" y="559"/>
      <point x="165" y="514" type="curve"/>
      <point x="164" y="516"/>
      <point x="163" y="520"/>
      <point x="163" y="526" type="curve" smooth="yes"/>
      <point x="163" y="545"/>
      <point x="168" y="581"/>
      <point x="168" y="590" type="curve" smooth="yes"/>
      <point x="168" y="594"/>
      <point x="166" y="597"/>
      <point x="163" y="597" type="curve" smooth="yes"/>
      <point x="159" y="597"/>
      <point x="156" y="595"/>
      <point x="152" y="592" type="curve" smooth="yes"/>
      <point x="124" y="571"/>
      <point x="97" y="556"/>
      <point x="52" y="541" type="curve" smooth="yes"/>
      <point x="46" y="539"/>
      <point x="43" y="536"/>
      <point x="43" y="529" type="curve" smooth="yes"/>
      <point x="43" y="521"/>
      <point x="47" y="518"/>
      <point x="53" y="516" type="curve" smooth="yes"/>
      <point x="86" y="505"/>
      <point x="90" y="480"/>
      <point x="90" y="444" type="curve" smooth="yes"/>
      <point x="90" y="62" type="line" smooth="yes"/>
      <point x="90" y="35"/>
      <point x="67" y="29"/>
      <point x="47" y="24" type="curve" smooth="yes"/>
      <point x="32" y="20"/>
      <point x="24" y="18"/>
      <point x="24" y="8" type="curve" smooth="yes"/>
      <point x="24" y="0"/>
      <point x="32" y="-3"/>
    </contour>
  </outline>
</glyph>
<glyph name="p" format="1">
  <advance width="519"/>
  <unicode hex="0070"/>
  <outline>
    <contour>
      <point x="40" y="-395" type="curve" smooth="yes"/>
      <point x="79" y="-395"/>
      <point x="85" y="-390"/>
      <point x="120" y="-390" type="curve" smooth="yes"/>
      <point x="155" y="-390"/>
      <point x="175" y="-395"/>
      <point x="214" y="-395" type="curve" smooth="yes"/>
      <point x="222" y="-395"/>
      <point x="236" y="-394"/>
      <point x="236" y="-386" type="curve" smooth="yes"/>
      <point x="236" y="-376"/>
      <point x="224" y="-372"/>
      <point x="213" y="-368" type="curve"/>
      <point x="193" y="-362"/>
      <point x="155" y="-357"/>
      <point x="155" y="-330" type="curve" smooth="yes"/>
      <point x="155" y="-40" type="line" smooth="yes"/>
      <point x="155" y="-32"/>
      <point x="156" y="31"/>
      <point x="159" y="31" type="curve"/>
      <point x="179" y="6"/>
      <point x="231" y="-14"/>
      <point x="259" y="-14" type="curve" smooth="yes"/>
      <point x="385" y="-14"/>
      <point x="484" y="153"/>
      <point x="484" y="319" type="curve" smooth="yes"/>
      <point x="484" y="450"/>
      <point x="423" y="581"/>
      <point x="320" y="584" type="curve" smooth="yes"/>
      <point x="257" y="584"/>
      <point x="177" y="533"/>
      <point x="158" y="511" type="curve"/>
      <point x="157" y="533"/>
      <point x="157" y="536"/>
      <point x="157" y="539" type="curve" smooth="yes"/>
      <point x="157" y="552"/>
      <point x="162" y="577"/>
      <point x="162" y="587" type="curve" smooth="yes"/>
      <point x="162" y="590"/>
      <point x="159" y="594"/>
      <point x="156" y="594" type="curve" smooth="yes"/>
      <point x="155" y="594"/>
      <point x="155" y="593"/>
      <point x="154" y="593" type="curve"/>
      <point x="122" y="580"/>
      <point x="89" y="566"/>
      <point x="38" y="553" type="curve" smooth="yes"/>
      <point x="34" y="552"/>
      <point x="31" y="547"/>
      <point x="31" y="541" type="curve" smooth="yes"/>
      <point x="31" y="535"/>
      <point x="34" y="529"/>
      <point x="39" y="528" type="curve" smooth="yes"/>
      <point x="72" y="521"/>
      <point x="85" y="470"/>
      <point x="85" y="455" type="curve" smooth="yes"/>
      <point x="85" y="-330" type="line" smooth="yes"/>
      <point x="85" y="-357"/>
      <point x="62" y="-362"/>
      <point x="42" y="-368" type="curve"/>
      <point x="31" y="-372"/>
      <point x="19" y="-376"/>
      <point x="19" y="-386" type="curve" smooth="yes"/>
      <point x="19" y="-394"/>
      <point x="33" y="-395"/>
    </contour>
    <contour>
      <point x="274" y="24" type="curve" smooth="yes"/>
      <point x="200" y="24"/>
      <point x="155" y="77"/>
      <point x="155" y="237" type="curve" smooth="yes"/>
      <point x="155" y="272"/>
      <point x="158" y="371"/>
      <point x="158" y="475" type="curve" smooth="yes"/>
      <point x="158" y="489"/>
      <point x="220" y="528"/>
      <point x="268" y="528" type="curve" smooth="yes"/>
      <point x="311" y="528"/>
      <point x="404" y="496"/>
      <point x="404" y="276" type="curve" smooth="yes"/>
      <point x="404" y="84"/>
      <point x="313" y="24"/>
    </contour>
  </outline>
</glyph>
<glyph name="q" format="1">
  <advance width="522"/>
  <unicode hex="0071"/>
  <outline>
    <contour>
      <point x="331" y="-394" type="curve" smooth="yes"/>
      <point x="371" y="-394"/>
      <point x="377" y="-389"/>
      <point x="412" y="-389" type="curve" smooth="yes"/>
      <point x="448" y="-389"/>
      <point x="462" y="-394"/>
      <point x="502" y="-394" type="curve" smooth="yes"/>
      <point x="510" y="-394"/>
      <point x="522" y="-393"/>
      <point x="522" y="-385" type="curve" smooth="yes"/>
      <point x="522" y="-375"/>
      <point x="510" y="-371"/>
      <point x="499" y="-367" type="curve"/>
      <point x="479" y="-361"/>
      <point x="447" y="-356"/>
      <point x="447" y="-329" type="curve" smooth="yes"/>
      <point x="447" y="415" type="line" smooth="yes"/>
      <point x="447" y="494"/>
      <point x="459" y="558"/>
      <point x="459" y="576" type="curve" smooth="yes"/>
      <point x="459" y="583"/>
      <point x="449" y="590"/>
      <point x="443" y="590" type="curve" smooth="yes"/>
      <point x="440" y="590"/>
      <point x="437" y="586"/>
      <point x="436" y="585" type="curve"/>
      <point x="429" y="564"/>
      <point x="424" y="550"/>
      <point x="410" y="550" type="curve" smooth="yes"/>
      <point x="405" y="550"/>
      <point x="350" y="581"/>
      <point x="282" y="581" type="curve" smooth="yes"/>
      <point x="135" y="581"/>
      <point x="35" y="449"/>
      <point x="35" y="253" type="curve" smooth="yes"/>
      <point x="35" y="80"/>
      <point x="131" y="-14"/>
      <point x="235" y="-14" type="curve" smooth="yes"/>
      <point x="288" y="-14"/>
      <point x="345" y="42"/>
      <point x="362" y="62" type="curve" smooth="yes"/>
      <point x="365" y="67"/>
      <point x="368" y="65"/>
      <point x="371" y="65" type="curve" smooth="yes"/>
      <point x="375" y="65"/>
      <point x="377" y="56"/>
      <point x="377" y="24" type="curve" smooth="yes"/>
      <point x="377" y="-329" type="line" smooth="yes"/>
      <point x="377" y="-356"/>
      <point x="354" y="-361"/>
      <point x="334" y="-367" type="curve"/>
      <point x="323" y="-371"/>
      <point x="311" y="-375"/>
      <point x="311" y="-385" type="curve" smooth="yes"/>
      <point x="311" y="-393"/>
      <point x="324" y="-394"/>
    </contour>
    <contour>
      <point x="272" y="41" type="curve" smooth="yes"/>
      <point x="173" y="41"/>
      <point x="117" y="132"/>
      <point x="117" y="287" type="curve" smooth="yes"/>
      <point x="117" y="458"/>
      <point x="185" y="549"/>
      <point x="257" y="549" type="curve" smooth="yes"/>
      <point x="340" y="549"/>
      <point x="374" y="501"/>
      <point x="377" y="391" type="curve" smooth="yes"/>
      <point x="378" y="355"/>
      <point x="378" y="156"/>
      <point x="378" y="103" type="curve"/>
      <point x="361" y="74"/>
      <point x="316" y="41"/>
    </contour>
  </outline>
</glyph>
<glyph name="s" format="1">
  <advance width="323"/>
  <unicode hex="0073"/>
  <outline>
    <contour>
      <point x="144" y="-14" type="curve" smooth="yes"/>
      <point x="231" y="-14"/>
      <point x="291" y="50"/>
      <point x="291" y="141" type="curve" smooth="yes"/>
      <point x="291" y="223"/>
      <point x="253" y="270"/>
      <point x="176" y="336" type="curve" smooth="yes"/>
      <point x="122" y="379"/>
      <point x="107" y="407"/>
      <point x="107" y="470" type="curve" smooth="yes"/>
      <point x="107" y="523"/>
      <point x="138" y="553"/>
      <point x="171" y="553" type="curve" smooth="yes"/>
      <point x="209" y="553"/>
      <point x="234" y="529"/>
      <point x="252" y="485" type="curve" smooth="yes"/>
      <point x="254" y="480"/>
      <point x="263" y="476"/>
      <point x="271" y="476" type="curve" smooth="yes"/>
      <point x="276" y="476"/>
      <point x="281" y="478"/>
      <point x="281" y="483" type="curve" smooth="yes"/>
      <point x="281" y="511"/>
      <point x="272" y="547"/>
      <point x="262" y="562" type="curve"/>
      <point x="249" y="571"/>
      <point x="222" y="581"/>
      <point x="182" y="581" type="curve" smooth="yes"/>
      <point x="92" y="581"/>
      <point x="47" y="514"/>
      <point x="47" y="430" type="curve" smooth="yes"/>
      <point x="47" y="358"/>
      <point x="76" y="313"/>
      <point x="145" y="258" type="curve" smooth="yes"/>
      <point x="209" y="202"/>
      <point x="223" y="159"/>
      <point x="223" y="104" type="curve" smooth="yes"/>
      <point x="223" y="52"/>
      <point x="192" y="13"/>
      <point x="153" y="13" type="curve" smooth="yes"/>
      <point x="114" y="13"/>
      <point x="71" y="38"/>
      <point x="54" y="104" type="curve"/>
      <point x="53" y="109"/>
      <point x="47" y="111"/>
      <point x="42" y="111" type="curve" smooth="yes"/>
      <point x="35" y="111"/>
      <point x="29" y="108"/>
      <point x="29" y="102" type="curve"/>
      <point x="30" y="79"/>
      <point x="33" y="36"/>
      <point x="40" y="22" type="curve"/>
      <point x="65" y="-1"/>
      <point x="103" y="-14"/>
    </contour>
  </outline>
</glyph>
<glyph name="t" format="1">
  <advance width="314"/>
  <unicode hex="0074"/>
  <outline>
    <contour>
      <point x="189" y="-14" type="curve" smooth="yes"/>
      <point x="250" y="-14"/>
      <point x="306" y="36"/>
      <point x="306" y="47" type="curve" smooth="yes"/>
      <point x="306" y="54"/>
      <point x="304" y="61"/>
      <point x="299" y="61" type="curve" smooth="yes"/>
      <point x="298" y="61"/>
      <point x="296" y="60"/>
      <point x="295" y="59" type="curve" smooth="yes"/>
      <point x="278" y="47"/>
      <point x="260" y="41"/>
      <point x="221" y="41" type="curve" smooth="yes"/>
      <point x="178" y="41"/>
      <point x="155" y="73"/>
      <point x="155" y="127" type="curve" smooth="yes"/>
      <point x="155" y="491" type="line" smooth="yes"/>
      <point x="155" y="518"/>
      <point x="161" y="519"/>
      <point x="195" y="519" type="curve" smooth="yes"/>
      <point x="294" y="519" type="line" smooth="yes"/>
      <point x="299" y="519"/>
      <point x="304" y="533"/>
      <point x="304" y="545" type="curve" smooth="yes"/>
      <point x="304" y="557"/>
      <point x="299" y="567"/>
      <point x="294" y="567" type="curve" smooth="yes"/>
      <point x="180" y="567" type="line" smooth="yes"/>
      <point x="163" y="567"/>
      <point x="154" y="572"/>
      <point x="156" y="594" type="curve" smooth="yes"/>
      <point x="161" y="656" type="line" smooth="yes"/>
      <point x="162" y="669"/>
      <point x="154" y="672"/>
      <point x="148" y="672" type="curve" smooth="yes"/>
      <point x="141" y="672"/>
      <point x="137" y="665"/>
      <point x="131" y="656" type="curve" smooth="yes"/>
      <point x="113" y="627"/>
      <point x="84" y="578"/>
      <point x="42" y="550" type="curve" smooth="yes"/>
      <point x="40" y="549"/>
      <point x="35" y="542"/>
      <point x="35" y="539" type="curve" smooth="yes"/>
      <point x="35" y="529"/>
      <point x="40" y="519"/>
      <point x="47" y="519" type="curve" smooth="yes"/>
      <point x="53" y="519" type="line"/>
      <point x="79" y="519"/>
      <point x="85" y="515"/>
      <point x="85" y="504" type="curve" smooth="yes"/>
      <point x="85" y="105" type="line" smooth="yes"/>
      <point x="85" y="26"/>
      <point x="124" y="-14"/>
    </contour>
  </outline>
</glyph>
<glyph name="u" format="1">
  <advance width="527"/>
  <unicode hex="0075"/>
  <outline>
    <contour>
      <point x="366" y="-19" type="curve" smooth="yes"/>
      <point x="372" y="-19"/>
      <point x="382" y="-15"/>
      <point x="386" y="-13" type="curve"/>
      <point x="415" y="-1"/>
      <point x="451" y="14"/>
      <point x="503" y="21" type="curve" smooth="yes"/>
      <point x="511" y="22"/>
      <point x="517" y="24"/>
      <point x="517" y="35" type="curve" smooth="yes"/>
      <point x="517" y="47"/>
      <point x="509" y="48"/>
      <point x="502" y="48" type="curve" smooth="yes"/>
      <point x="492" y="48"/>
      <point x="466" y="45"/>
      <point x="456" y="45" type="curve" smooth="yes"/>
      <point x="446" y="45"/>
      <point x="438" y="59"/>
      <point x="438" y="95" type="curve" smooth="yes"/>
      <point x="438" y="493" type="line" smooth="yes"/>
      <point x="438" y="509"/>
      <point x="443" y="555"/>
      <point x="445" y="562" type="curve" smooth="yes"/>
      <point x="446" y="566"/>
      <point x="447" y="569"/>
      <point x="447" y="571" type="curve" smooth="yes"/>
      <point x="447" y="578"/>
      <point x="441" y="582"/>
      <point x="434" y="582" type="curve" smooth="yes"/>
      <point x="431" y="582"/>
      <point x="427" y="581"/>
      <point x="424" y="580" type="curve"/>
      <point x="388" y="570"/>
      <point x="362" y="564"/>
      <point x="301" y="564" type="curve" smooth="yes"/>
      <point x="290" y="564"/>
      <point x="280" y="561"/>
      <point x="280" y="549" type="curve" smooth="yes"/>
      <point x="280" y="535"/>
      <point x="289" y="532"/>
      <point x="301" y="532" type="curve" smooth="yes"/>
      <point x="321" y="532"/>
      <point x="368" y="523"/>
      <point x="368" y="482" type="curve" smooth="yes"/>
      <point x="368" y="132" type="line" smooth="yes"/>
      <point x="368" y="91"/>
      <point x="338" y="68"/>
      <point x="323" y="57" type="curve" smooth="yes"/>
      <point x="298" y="38"/>
      <point x="273" y="37"/>
      <point x="239" y="37" type="curve" smooth="yes"/>
      <point x="196" y="37"/>
      <point x="155" y="80"/>
      <point x="155" y="128" type="curve" smooth="yes"/>
      <point x="155" y="490" type="line" smooth="yes"/>
      <point x="155" y="520"/>
      <point x="158" y="536"/>
      <point x="161" y="567" type="curve" smooth="yes"/>
      <point x="162" y="578"/>
      <point x="157" y="581"/>
      <point x="151" y="581" type="curve" smooth="yes"/>
      <point x="148" y="581"/>
      <point x="147" y="581"/>
      <point x="143" y="580" type="curve" smooth="yes"/>
      <point x="106" y="571"/>
      <point x="89" y="570"/>
      <point x="44" y="564" type="curve" smooth="yes"/>
      <point x="36" y="563"/>
      <point x="29" y="560"/>
      <point x="29" y="548" type="curve" smooth="yes"/>
      <point x="29" y="537"/>
      <point x="35" y="534"/>
      <point x="42" y="532" type="curve"/>
      <point x="72" y="520"/>
      <point x="85" y="504"/>
      <point x="85" y="475" type="curve" smooth="yes"/>
      <point x="85" y="105" type="line" smooth="yes"/>
      <point x="85" y="27"/>
      <point x="134" y="-14"/>
      <point x="199" y="-14" type="curve" smooth="yes"/>
      <point x="261" y="-14"/>
      <point x="312" y="6"/>
      <point x="364" y="57" type="curve"/>
      <point x="364" y="55"/>
      <point x="364" y="53"/>
      <point x="364" y="51" type="curve" smooth="yes"/>
      <point x="364" y="34"/>
      <point x="359" y="2"/>
      <point x="359" y="-11" type="curve" smooth="yes"/>
      <point x="359" y="-16"/>
      <point x="361" y="-19"/>
    </contour>
  </outline>
</glyph>
<glyph name="v" format="1">
  <advance width="438"/>
  <unicode hex="0076"/>
  <outline>
    <contour>
      <point x="214" y="-21" type="curve"/>
      <point x="224" y="-21" type="line"/>
      <point x="369" y="481" type="line"/>
      <point x="379" y="514"/>
      <point x="406" y="542"/>
      <point x="423" y="548" type="curve" smooth="yes"/>
      <point x="437" y="553"/>
      <point x="443" y="557"/>
      <point x="443" y="566" type="curve" smooth="yes"/>
      <point x="443" y="574"/>
      <point x="433" y="575"/>
      <point x="423" y="575" type="curve" smooth="yes"/>
      <point x="404" y="575"/>
      <point x="399" y="570"/>
      <point x="364" y="570" type="curve" smooth="yes"/>
      <point x="329" y="570"/>
      <point x="306" y="575"/>
      <point x="291" y="575" type="curve" smooth="yes"/>
      <point x="282" y="575"/>
      <point x="271" y="574"/>
      <point x="271" y="566" type="curve" smooth="yes"/>
      <point x="271" y="557"/>
      <point x="279" y="554"/>
      <point x="301" y="548" type="curve" smooth="yes"/>
      <point x="324" y="542"/>
      <point x="331" y="532"/>
      <point x="331" y="516" type="curve" smooth="yes"/>
      <point x="331" y="495"/>
      <point x="328" y="478"/>
      <point x="324" y="465" type="curve" smooth="yes"/>
      <point x="236" y="146" type="line"/>
      <point x="235" y="145"/>
      <point x="234" y="145"/>
      <point x="233" y="146" type="curve"/>
      <point x="145" y="480" type="line" smooth="yes"/>
      <point x="143" y="488"/>
      <point x="139" y="498"/>
      <point x="139" y="507" type="curve" smooth="yes"/>
      <point x="139" y="526"/>
      <point x="146" y="543"/>
      <point x="164" y="548" type="curve" smooth="yes"/>
      <point x="179" y="552"/>
      <point x="193" y="556"/>
      <point x="193" y="566" type="curve" smooth="yes"/>
      <point x="193" y="574"/>
      <point x="180" y="575"/>
      <point x="173" y="575" type="curve" smooth="yes"/>
      <point x="134" y="575"/>
      <point x="133" y="570"/>
      <point x="98" y="570" type="curve" smooth="yes"/>
      <point x="63" y="570"/>
      <point x="64" y="575"/>
      <point x="25" y="575" type="curve" smooth="yes"/>
      <point x="18" y="575"/>
      <point x="5" y="574"/>
      <point x="5" y="566" type="curve" smooth="yes"/>
      <point x="5" y="557"/>
      <point x="11" y="554"/>
      <point x="20" y="550" type="curve" smooth="yes"/>
      <point x="37" y="543"/>
      <point x="57" y="523"/>
      <point x="65" y="499" type="curve" smooth="yes"/>
      <point x="103" y="386"/>
      <point x="141" y="246"/>
      <point x="171" y="130" type="curve" smooth="yes"/>
      <point x="179" y="99"/>
      <point x="187" y="63"/>
      <point x="196" y="32" type="curve" smooth="yes"/>
      <point x="199" y="20"/>
      <point x="209" y="-21"/>
    </contour>
  </outline>
</glyph>
<glyph name="w" format="1">
  <advance width="685"/>
  <unicode hex="0077"/>
  <outline>
    <contour>
      <point x="226" y="-23" type="curve" smooth="yes"/>
      <point x="229" y="-23"/>
      <point x="243" y="-20"/>
      <point x="244" y="-16" type="curve" smooth="yes"/>
      <point x="343" y="408" type="line"/>
      <point x="346" y="415"/>
      <point x="348" y="418"/>
      <point x="350" y="418" type="curve" smooth="yes"/>
      <point x="352" y="418"/>
      <point x="354" y="414"/>
      <point x="356" y="409" type="curve"/>
      <point x="453" y="-16" type="line" smooth="yes"/>
      <point x="454" y="-20"/>
      <point x="465" y="-23"/>
      <point x="468" y="-23" type="curve" smooth="yes"/>
      <point x="472" y="-23"/>
      <point x="479" y="-20"/>
      <point x="481" y="-16" type="curve"/>
      <point x="614" y="479" type="line" smooth="yes"/>
      <point x="622" y="510"/>
      <point x="647" y="539"/>
      <point x="667" y="545" type="curve"/>
      <point x="678" y="549"/>
      <point x="690" y="553"/>
      <point x="690" y="563" type="curve" smooth="yes"/>
      <point x="690" y="571"/>
      <point x="678" y="572"/>
      <point x="670" y="572" type="curve" smooth="yes"/>
      <point x="648" y="572"/>
      <point x="649" y="567"/>
      <point x="612" y="567" type="curve" smooth="yes"/>
      <point x="576" y="567"/>
      <point x="566" y="572"/>
      <point x="537" y="572" type="curve" smooth="yes"/>
      <point x="530" y="572"/>
      <point x="517" y="571"/>
      <point x="517" y="563" type="curve" smooth="yes"/>
      <point x="517" y="553"/>
      <point x="529" y="549"/>
      <point x="540" y="545" type="curve" smooth="yes"/>
      <point x="555" y="540"/>
      <point x="575" y="525"/>
      <point x="575" y="501" type="curve" smooth="yes"/>
      <point x="575" y="492"/>
      <point x="573" y="473"/>
      <point x="567" y="449" type="curve" smooth="yes"/>
      <point x="492" y="118" type="line" smooth="yes"/>
      <point x="489" y="111"/>
      <point x="487" y="108"/>
      <point x="484" y="108" type="curve" smooth="yes"/>
      <point x="482" y="108"/>
      <point x="477" y="112"/>
      <point x="476" y="119" type="curve" smooth="yes"/>
      <point x="403" y="477" type="line" smooth="yes"/>
      <point x="401" y="489"/>
      <point x="398" y="501"/>
      <point x="398" y="509" type="curve" smooth="yes"/>
      <point x="398" y="533"/>
      <point x="417" y="540"/>
      <point x="432" y="545" type="curve" smooth="yes"/>
      <point x="443" y="549"/>
      <point x="455" y="553"/>
      <point x="455" y="563" type="curve" smooth="yes"/>
      <point x="455" y="571"/>
      <point x="442" y="572"/>
      <point x="435" y="572" type="curve" smooth="yes"/>
      <point x="413" y="572"/>
      <point x="384" y="567"/>
      <point x="347" y="567" type="curve" smooth="yes"/>
      <point x="310" y="567"/>
      <point x="290" y="572"/>
      <point x="272" y="572" type="curve" smooth="yes"/>
      <point x="264" y="572"/>
      <point x="252" y="571"/>
      <point x="252" y="563" type="curve" smooth="yes"/>
      <point x="252" y="553"/>
      <point x="264" y="549"/>
      <point x="275" y="545" type="curve" smooth="yes"/>
      <point x="298" y="537"/>
      <point x="326" y="517"/>
      <point x="326" y="488" type="curve" smooth="yes"/>
      <point x="326" y="473"/>
      <point x="325" y="457"/>
      <point x="316" y="417" type="curve" smooth="yes"/>
      <point x="249" y="120" type="line" smooth="yes"/>
      <point x="248" y="117"/>
      <point x="246" y="116"/>
      <point x="244" y="116" type="curve" smooth="yes"/>
      <point x="242" y="116"/>
      <point x="240" y="117"/>
      <point x="239" y="120" type="curve" smooth="yes"/>
      <point x="160" y="478" type="line" smooth="yes"/>
      <point x="158" y="486"/>
      <point x="157" y="496"/>
      <point x="157" y="505" type="curve" smooth="yes"/>
      <point x="157" y="524"/>
      <point x="164" y="541"/>
      <point x="178" y="545" type="curve"/>
      <point x="189" y="549"/>
      <point x="201" y="553"/>
      <point x="201" y="563" type="curve" smooth="yes"/>
      <point x="201" y="571"/>
      <point x="186" y="572"/>
      <point x="181" y="572" type="curve" smooth="yes"/>
      <point x="153" y="572"/>
      <point x="126" y="567"/>
      <point x="98" y="567" type="curve" smooth="yes"/>
      <point x="72" y="567"/>
      <point x="50" y="572"/>
      <point x="25" y="572" type="curve" smooth="yes"/>
      <point x="18" y="572"/>
      <point x="5" y="571"/>
      <point x="5" y="563" type="curve" smooth="yes"/>
      <point x="5" y="553"/>
      <point x="17" y="549"/>
      <point x="28" y="545" type="curve"/>
      <point x="48" y="539"/>
      <point x="73" y="523"/>
      <point x="80" y="496" type="curve" smooth="yes"/>
      <point x="213" y="-16" type="line"/>
      <point x="214" y="-20"/>
      <point x="223" y="-23"/>
    </contour>
  </outline>
</glyph>
<glyph name="y" format="1">
  <advance width="438"/>
  <unicode hex="0079"/>
  <outline>
    <contour>
      <point x="47" y="-399" type="curve" smooth="yes"/>
      <point x="77" y="-399"/>
      <point x="101" y="-381"/>
      <point x="114" y="-346" type="curve"/>
      <point x="369" y="481" type="line"/>
      <point x="379" y="514"/>
      <point x="406" y="542"/>
      <point x="423" y="548" type="curve" smooth="yes"/>
      <point x="437" y="553"/>
      <point x="443" y="557"/>
      <point x="443" y="566" type="curve" smooth="yes"/>
      <point x="443" y="574"/>
      <point x="433" y="575"/>
      <point x="423" y="575" type="curve" smooth="yes"/>
      <point x="404" y="575"/>
      <point x="399" y="570"/>
      <point x="364" y="570" type="curve" smooth="yes"/>
      <point x="329" y="570"/>
      <point x="306" y="575"/>
      <point x="291" y="575" type="curve" smooth="yes"/>
      <point x="282" y="575"/>
      <point x="271" y="574"/>
      <point x="271" y="566" type="curve" smooth="yes"/>
      <point x="271" y="557"/>
      <point x="279" y="554"/>
      <point x="301" y="548" type="curve" smooth="yes"/>
      <point x="324" y="542"/>
      <point x="331" y="532"/>
      <point x="331" y="516" type="curve" smooth="yes"/>
      <point x="331" y="495"/>
      <point x="328" y="478"/>
      <point x="324" y="465" type="curve" smooth="yes"/>
      <point x="238" y="150" type="line" smooth="yes"/>
      <point x="237" y="147"/>
      <point x="236" y="146"/>
      <point x="235" y="146" type="curve" smooth="yes"/>
      <point x="234" y="146"/>
      <point x="233" y="147"/>
      <point x="232" y="150" type="curve" smooth="yes"/>
      <point x="145" y="480" type="line" smooth="yes"/>
      <point x="143" y="488"/>
      <point x="139" y="498"/>
      <point x="139" y="507" type="curve" smooth="yes"/>
      <point x="139" y="526"/>
      <point x="146" y="543"/>
      <point x="164" y="548" type="curve" smooth="yes"/>
      <point x="179" y="552"/>
      <point x="193" y="556"/>
      <point x="193" y="566" type="curve" smooth="yes"/>
      <point x="193" y="574"/>
      <point x="180" y="575"/>
      <point x="173" y="575" type="curve" smooth="yes"/>
      <point x="134" y="575"/>
      <point x="133" y="570"/>
      <point x="98" y="570" type="curve" smooth="yes"/>
      <point x="63" y="570"/>
      <point x="64" y="575"/>
      <point x="25" y="575" type="curve" smooth="yes"/>
      <point x="18" y="575"/>
      <point x="5" y="574"/>
      <point x="5" y="566" type="curve" smooth="yes"/>
      <point x="5" y="557"/>
      <point x="11" y="554"/>
      <point x="20" y="550" type="curve" smooth="yes"/>
      <point x="38" y="543"/>
      <point x="56" y="525"/>
      <point x="65" y="499" type="curve"/>
      <point x="192" y="44" type="line"/>
      <point x="195" y="36"/>
      <point x="196" y="26"/>
      <point x="196" y="15" type="curve" smooth="yes"/>
      <point x="196" y="6"/>
      <point x="195" y="-2"/>
      <point x="193" y="-8" type="curve"/>
      <point x="94" y="-301" type="line" smooth="yes"/>
      <point x="89" y="-316"/>
      <point x="77" y="-319"/>
      <point x="69" y="-319" type="curve" smooth="yes"/>
      <point x="58" y="-319"/>
      <point x="44" y="-313"/>
      <point x="29" y="-313" type="curve" smooth="yes"/>
      <point x="8" y="-313"/>
      <point x="-4" y="-334"/>
      <point x="-4" y="-358" type="curve" smooth="yes"/>
      <point x="-4" y="-388"/>
      <point x="21" y="-399"/>
    </contour>
  </outline>
</glyph>
<glyph name="z" format="1">
  <advance width="377"/>
  <unicode hex="007A"/>
  <outline>
    <contour>
      <point x="39" y="-5" type="curve" smooth="yes"/>
      <point x="56" y="-5"/>
      <point x="91" y="0"/>
      <point x="119" y="0" type="curve" smooth="yes"/>
      <point x="228" y="0"/>
      <point x="299" y="-5"/>
      <point x="328" y="-5" type="curve" smooth="yes"/>
      <point x="336" y="-5"/>
      <point x="342" y="0"/>
      <point x="344" y="9" type="curve" smooth="yes"/>
      <point x="349" y="25"/>
      <point x="374" y="114"/>
      <point x="374" y="122" type="curve" smooth="yes"/>
      <point x="374" y="133"/>
      <point x="358" y="138"/>
      <point x="352" y="129" type="curve" smooth="yes"/>
      <point x="332" y="100"/>
      <point x="313" y="72"/>
      <point x="297" y="56" type="curve" smooth="yes"/>
      <point x="282" y="41"/>
      <point x="267" y="33"/>
      <point x="252" y="33" type="curve" smooth="yes"/>
      <point x="122" y="33" type="line" smooth="yes"/>
      <point x="113" y="33"/>
      <point x="108" y="37"/>
      <point x="113" y="48" type="curve" smooth="yes"/>
      <point x="330" y="505" type="line" smooth="yes"/>
      <point x="340" y="527"/>
      <point x="344" y="541"/>
      <point x="358" y="558" type="curve"/>
      <point x="361" y="562"/>
      <point x="356" y="570"/>
      <point x="351" y="570" type="curve" smooth="yes"/>
      <point x="290" y="570"/>
      <point x="234" y="567"/>
      <point x="165" y="567" type="curve" smooth="yes"/>
      <point x="156" y="567"/>
      <point x="142" y="566"/>
      <point x="127" y="566" type="curve" smooth="yes"/>
      <point x="109" y="566"/>
      <point x="90" y="567"/>
      <point x="84" y="572" type="curve" smooth="yes"/>
      <point x="78" y="577"/>
      <point x="72" y="581"/>
      <point x="69" y="581" type="curve" smooth="yes"/>
      <point x="65" y="581"/>
      <point x="54" y="573"/>
      <point x="54" y="563" type="curve" smooth="yes"/>
      <point x="54" y="538"/>
      <point x="41" y="487"/>
      <point x="35" y="469" type="curve" smooth="yes"/>
      <point x="31" y="458"/>
      <point x="49" y="451"/>
      <point x="57" y="459" type="curve" smooth="yes"/>
      <point x="73" y="475"/>
      <point x="86" y="502"/>
      <point x="101" y="517" type="curve" smooth="yes"/>
      <point x="109" y="525"/>
      <point x="126" y="537"/>
      <point x="145" y="536" type="curve" smooth="yes"/>
      <point x="255" y="533" type="line" smooth="yes"/>
      <point x="270" y="533"/>
      <point x="267" y="523"/>
      <point x="265" y="519" type="curve" smooth="yes"/>
      <point x="193" y="360"/>
      <point x="129" y="239"/>
      <point x="62" y="98" type="curve" smooth="yes"/>
      <point x="48" y="70"/>
      <point x="25" y="19"/>
      <point x="25" y="12" type="curve" smooth="yes"/>
      <point x="25" y="7"/>
      <point x="34" y="-5"/>
    </contour>
  </outline>
</glyph>
<glyph name="braceleft" format="1">
  <advance width="376"/>
  <unicode hex="007B"/>
  <outline>
    <contour>
      <point x="335" y="-152" type="curve" smooth="yes"/>
      <point x="344" y="-153"/>
      <point x="353" y="-146"/>
      <point x="353" y="-138" type="curve" smooth="yes"/>
      <point x="353" y="-128"/>
      <point x="338" y="-128"/>
      <point x="327" y="-126" type="curve" smooth="yes"/>
      <point x="247" y="-112"/>
      <point x="228" y="-101"/>
      <point x="228" y="14" type="curve" smooth="yes"/>
      <point x="228" y="103"/>
      <point x="241" y="165"/>
      <point x="241" y="241" type="curve" smooth="yes"/>
      <point x="241" y="328"/>
      <point x="174" y="409"/>
      <point x="120" y="415" type="curve"/>
      <point x="117" y="416"/>
      <point x="114" y="418"/>
      <point x="118" y="420" type="curve"/>
      <point x="180" y="437"/>
      <point x="241" y="506"/>
      <point x="241" y="592" type="curve" smooth="yes"/>
      <point x="241" y="669"/>
      <point x="228" y="730"/>
      <point x="228" y="820" type="curve" smooth="yes"/>
      <point x="228" y="937"/>
      <point x="256" y="946"/>
      <point x="330" y="961" type="curve" smooth="yes"/>
      <point x="341" y="963"/>
      <point x="356" y="964"/>
      <point x="356" y="974" type="curve" smooth="yes"/>
      <point x="356" y="982"/>
      <point x="347" y="988"/>
      <point x="338" y="988" type="curve" smooth="yes"/>
      <point x="244" y="983"/>
      <point x="143" y="937"/>
      <point x="143" y="813" type="curve" smooth="yes"/>
      <point x="143" y="721"/>
      <point x="156" y="661"/>
      <point x="156" y="579" type="curve" smooth="yes"/>
      <point x="156" y="486"/>
      <point x="138" y="454"/>
      <point x="71" y="437" type="curve" smooth="yes"/>
      <point x="57" y="433"/>
      <point x="50" y="425"/>
      <point x="50" y="419" type="curve" smooth="yes"/>
      <point x="50" y="410"/>
      <point x="60" y="404"/>
      <point x="69" y="402" type="curve" smooth="yes"/>
      <point x="133" y="385"/>
      <point x="156" y="348"/>
      <point x="156" y="255" type="curve" smooth="yes"/>
      <point x="156" y="173"/>
      <point x="143" y="113"/>
      <point x="143" y="21" type="curve" smooth="yes"/>
      <point x="143" y="-103"/>
      <point x="241" y="-144"/>
    </contour>
  </outline>
</glyph>
